<svg xmlns="http://www.w3.org/2000/svg" xmlns:xlink="http://www.w3.org/1999/xlink" width="200" zoomAndPan="magnify" viewBox="0 0 150 157.92" height="200" preserveAspectRatio="xMidYMid meet" version="1.0"><defs><clipPath id="92b3b39359"><path d="M 0.0390625 11 L 44 11 L 44 69 L 0.0390625 69 Z M 0.0390625 11 " clip-rule="nonzero"/></clipPath><clipPath id="73351834e8"><path d="M 106 81 L 149.960938 81 L 149.960938 139.898438 L 106 139.898438 Z M 106 81 " clip-rule="nonzero"/></clipPath></defs><path fill="#689bd4" d="M 123.691406 41.441406 C 137.914062 70.558594 134.359375 108.265625 111.351562 124.8125 C 96.992188 135.140625 53.007812 135.140625 38.648438 124.8125 C 15.636719 108.265625 12.082031 70.558594 26.304688 41.441406 C 41.558594 10.214844 108.4375 10.214844 123.691406 41.441406 Z M 123.691406 41.441406 " fill-opacity="1" fill-rule="nonzero"/><path fill="#ffffff" d="M 73.871094 115.371094 C 63.660156 115.371094 55.160156 110.042969 52.113281 101.765625 C 50.160156 99.195312 48.90625 96.207031 48.386719 92.882812 C 47.632812 88.03125 47.414062 80.953125 50.628906 74.769531 C 51.339844 73.398438 52.558594 71.457031 54.316406 70 C 55.699219 68.855469 57.265625 68.222656 58.722656 68.222656 C 59.878906 68.222656 60.96875 68.617188 61.871094 69.359375 C 63.15625 70.414062 63.785156 71.890625 63.75 73.769531 C 64.042969 73.925781 64.324219 74.113281 64.59375 74.335938 C 67.464844 76.6875 66.382812 80.351562 65.667969 82.773438 C 65.570312 83.109375 65.472656 83.429688 65.398438 83.71875 C 64.984375 85.273438 64.585938 87.054688 64.65625 88.738281 C 65.972656 89.503906 67.789062 89.90625 69.964844 89.90625 C 70.804688 89.90625 71.695312 89.847656 72.609375 89.726562 C 72.839844 89.699219 73.101562 89.667969 73.386719 89.632812 C 74.832031 89.460938 78.207031 89.058594 79.140625 88.3125 C 79.285156 88.199219 80.011719 87.476562 80.367188 84.398438 C 80.601562 82.339844 80.570312 80.140625 80.550781 78.832031 L 80.546875 78.625 C 80.480469 73.996094 80.128906 69.617188 79.46875 65.246094 C 79.371094 64.59375 79.261719 63.917969 79.15625 63.269531 C 78.785156 60.980469 78.402344 58.617188 78.359375 56.246094 C 78.339844 55.269531 78.382812 54.300781 78.480469 53.363281 C 78.699219 51.269531 79.316406 48.875 80.363281 46.050781 C 81.261719 43.621094 82.253906 41.484375 83.3125 39.707031 C 84.042969 38.476562 85.988281 35.207031 89.300781 35.207031 C 89.753906 35.207031 90.214844 35.269531 90.667969 35.398438 C 92.800781 35.992188 94.203125 37.792969 94.519531 40.339844 C 94.546875 40.519531 94.578125 40.703125 94.613281 40.890625 C 96.050781 41.746094 96.988281 43.300781 97.238281 45.316406 C 97.484375 46.902344 98.007812 48.769531 98.644531 50.320312 C 98.691406 50.429688 98.734375 50.539062 98.78125 50.644531 C 99.132812 51.46875 99.507812 52.171875 99.886719 52.734375 C 101.210938 54.683594 102.492188 57.039062 101.957031 59.75 C 101.609375 61.519531 100.546875 62.90625 99.609375 64.132812 C 99.328125 64.5 99.0625 64.847656 98.828125 65.183594 C 98.78125 65.253906 98.710938 65.355469 98.625 65.472656 C 98.464844 65.695312 98.023438 66.320312 97.835938 66.640625 C 97.796875 67.28125 97.851562 69.070312 97.878906 69.871094 C 97.894531 70.382812 97.90625 70.753906 97.90625 70.96875 C 97.90625 72.507812 98.019531 74.15625 98.125 75.75 C 98.191406 76.691406 98.253906 77.664062 98.296875 78.609375 C 98.507812 83.261719 98.460938 87.035156 98.152344 90.496094 C 97.292969 100.109375 94.410156 106.636719 89.332031 110.453125 C 85.105469 113.625 79.617188 115.371094 73.871094 115.371094 Z M 73.871094 115.371094 " fill-opacity="1" fill-rule="nonzero"/><path fill="#5d261c" d="M 92.726562 40.589844 C 92.804688 41.082031 92.90625 41.609375 93.03125 42.15625 C 94.570312 42.644531 95.265625 44.058594 95.449219 45.5625 C 95.703125 47.214844 96.242188 49.230469 96.980469 51.027344 C 97.023438 51.132812 97.070312 51.242188 97.113281 51.347656 C 97.492188 52.234375 97.925781 53.0625 98.394531 53.75 C 99.523438 55.417969 100.597656 57.304688 100.183594 59.398438 C 99.824219 61.214844 98.363281 62.667969 97.339844 64.160156 C 97.097656 64.511719 96.199219 65.726562 96.082031 66.113281 C 95.917969 66.664062 96.097656 70.261719 96.097656 70.96875 C 96.097656 73.488281 96.378906 76.15625 96.492188 78.691406 C 96.664062 82.566406 96.695312 86.46875 96.351562 90.332031 C 95.753906 97.03125 93.910156 104.75 88.246094 109.003906 C 77.34375 117.191406 58.402344 114.265625 53.71875 100.886719 C 51.9375 98.617188 50.679688 95.855469 50.171875 92.601562 C 49.300781 86.984375 49.5625 80.738281 52.234375 75.605469 C 53.035156 74.066406 54.125 72.507812 55.46875 71.394531 C 56.9375 70.179688 59.046875 69.382812 60.726562 70.761719 C 62.039062 71.835938 62.101562 73.429688 61.796875 75.03125 C 62.367188 75.089844 62.929688 75.308594 63.445312 75.734375 C 65.699219 77.582031 64.261719 80.953125 63.648438 83.253906 C 63.101562 85.324219 62.640625 87.597656 62.929688 89.753906 C 65.496094 91.746094 69.394531 91.972656 72.84375 91.523438 C 74.726562 91.28125 78.75 90.9375 80.265625 89.730469 C 82.550781 87.914062 82.390625 81.132812 82.355469 78.601562 C 82.289062 73.992188 81.941406 69.527344 81.257812 64.976562 C 80.828125 62.097656 80.222656 59.121094 80.164062 56.210938 C 80.148438 55.320312 80.183594 54.4375 80.277344 53.550781 C 80.515625 51.273438 81.265625 48.824219 82.058594 46.679688 C 82.8125 44.632812 83.746094 42.507812 84.863281 40.632812 C 85.960938 38.789062 87.6875 36.449219 90.1875 37.140625 C 91.8125 37.59375 92.542969 39.042969 92.726562 40.589844 Z M 92.726562 40.589844 " fill-opacity="1" fill-rule="nonzero"/><path fill="#a9d2f2" d="M 89.984375 40.960938 C 89.984375 40.960938 90.820312 46.566406 93.382812 50.335938 C 95.945312 54.105469 94.640625 54.265625 92.339844 57.613281 C 90.035156 60.96875 90.613281 59.917969 90.613281 65.992188 C 90.613281 72.070312 93.90625 94.273438 83.863281 101.8125 C 73.824219 109.355469 55.105469 106.316406 52.90625 92.175781 C 50.710938 78.039062 57.824219 71.964844 58.972656 72.90625 C 60.125 73.847656 56.359375 80.027344 57.613281 85.996094 C 58.871094 91.96875 64.308594 95.425781 73.199219 94.273438 C 82.089844 93.121094 85.328125 92.910156 85.121094 78.5625 C 84.910156 64.210938 82.402344 59.8125 83.027344 53.84375 C 83.65625 47.875 89.621094 36.035156 89.984375 40.960938 Z M 89.984375 40.960938 " fill-opacity="1" fill-rule="nonzero"/><g clip-path="url(#92b3b39359)"><path fill="#f0c847" d="M 16.382812 32.851562 C 14.6875 32.425781 14.621094 30.238281 16.289062 29.734375 C 19.46875 28.765625 21.824219 26.710938 23.550781 24.179688 C 25.882812 20.761719 27.09375 16.484375 27.652344 12.734375 C 27.753906 10.8125 30.921875 10.679688 31.199219 12.605469 C 31.773438 16.53125 32.996094 20.78125 35.3125 24.179688 C 37.023438 26.6875 39.351562 28.726562 42.480469 29.703125 C 44.175781 30.128906 44.242188 32.316406 42.578125 32.820312 C 39.394531 33.789062 37.039062 35.84375 35.3125 38.375 C 32.980469 41.792969 31.773438 46.070312 31.214844 49.820312 C 31.109375 51.742188 27.945312 51.875 27.664062 49.949219 C 27.09375 46.023438 25.867188 41.773438 23.550781 38.375 C 21.839844 35.867188 19.515625 33.828125 16.382812 32.851562 Z M 14.78125 60.058594 C 13.964844 59.855469 13.9375 58.808594 14.734375 58.5625 C 16.261719 58.097656 17.390625 57.113281 18.21875 55.898438 C 19.339844 54.253906 19.921875 52.203125 20.1875 50.402344 C 20.238281 49.480469 21.761719 49.417969 21.894531 50.339844 C 22.167969 52.226562 22.753906 54.265625 23.867188 55.898438 C 24.6875 57.101562 25.808594 58.078125 27.308594 58.550781 C 28.125 58.753906 28.15625 59.804688 27.355469 60.046875 C 25.828125 60.511719 24.695312 61.496094 23.867188 62.710938 C 22.75 64.351562 22.167969 66.40625 21.898438 68.207031 C 21.851562 69.128906 20.332031 69.191406 20.199219 68.269531 C 19.921875 66.382812 19.335938 64.34375 18.21875 62.710938 C 17.398438 61.507812 16.285156 60.527344 14.78125 60.058594 Z M 0.902344 42.042969 C 0.0859375 41.839844 0.0546875 40.792969 0.855469 40.546875 C 2.378906 40.085938 3.511719 39.097656 4.339844 37.882812 C 5.460938 36.242188 6.039062 34.1875 6.308594 32.386719 C 6.359375 31.464844 7.878906 31.402344 8.015625 32.324219 C 8.285156 34.210938 8.875 36.25 9.988281 37.882812 C 10.808594 39.085938 11.925781 40.0625 13.429688 40.535156 C 14.242188 40.738281 14.273438 41.789062 13.476562 42.03125 C 11.949219 42.496094 10.816406 43.480469 9.988281 44.695312 C 8.871094 46.339844 8.285156 48.390625 8.019531 50.191406 C 7.972656 51.113281 6.449219 51.175781 6.316406 50.253906 C 6.042969 48.371094 5.453125 46.328125 4.339844 44.695312 C 3.519531 43.492188 2.402344 42.515625 0.902344 42.042969 Z M 0.902344 42.042969 " fill-opacity="1" fill-rule="nonzero"/></g><g clip-path="url(#73351834e8)"><path fill="#f0c847" d="M 133.617188 117.730469 C 135.3125 118.15625 135.375 120.34375 133.710938 120.847656 C 130.53125 121.816406 128.175781 123.871094 126.449219 126.402344 C 124.121094 129.820312 122.90625 134.097656 122.351562 137.851562 C 122.246094 139.769531 119.078125 139.902344 118.796875 137.976562 C 118.230469 134.050781 117.003906 129.800781 114.683594 126.402344 C 112.976562 123.894531 110.648438 121.855469 107.515625 120.878906 C 105.824219 120.453125 105.757812 118.265625 107.425781 117.761719 C 110.601562 116.792969 112.957031 114.738281 114.683594 112.207031 C 117.015625 108.789062 118.230469 104.511719 118.789062 100.757812 C 118.890625 98.835938 122.058594 98.707031 122.335938 100.632812 C 122.90625 104.558594 124.132812 108.808594 126.449219 112.207031 C 128.160156 114.714844 130.484375 116.753906 133.617188 117.730469 Z M 135.222656 90.519531 C 136.03125 90.726562 136.066406 91.773438 135.265625 92.019531 C 133.738281 92.484375 132.605469 93.46875 131.777344 94.683594 C 130.660156 96.324219 130.078125 98.378906 129.808594 100.179688 C 129.761719 101.101562 128.242188 101.164062 128.105469 100.242188 C 127.832031 98.355469 127.242188 96.316406 126.128906 94.683594 C 125.308594 93.480469 124.195312 92.5 122.691406 92.03125 C 121.875 91.828125 121.847656 90.777344 122.644531 90.535156 C 124.171875 90.070312 125.300781 89.085938 126.128906 87.867188 C 127.25 86.226562 127.832031 84.175781 128.097656 82.375 C 128.152344 81.453125 129.671875 81.390625 129.804688 82.3125 C 130.078125 84.199219 130.664062 86.238281 131.777344 87.867188 C 132.597656 89.074219 133.714844 90.050781 135.222656 90.519531 Z M 149.101562 108.535156 C 149.914062 108.738281 149.945312 109.789062 149.144531 110.03125 C 147.621094 110.5 146.488281 111.484375 145.660156 112.699219 C 144.539062 114.339844 143.957031 116.394531 143.6875 118.195312 C 143.640625 119.117188 142.121094 119.179688 141.988281 118.257812 C 141.710938 116.371094 141.125 114.332031 140.011719 112.699219 C 139.191406 111.496094 138.074219 110.515625 136.570312 110.046875 C 135.757812 109.84375 135.726562 108.792969 136.527344 108.550781 C 138.050781 108.085938 139.183594 107.097656 140.011719 105.882812 C 141.132812 104.242188 141.710938 102.191406 141.980469 100.390625 C 142.03125 99.464844 143.550781 99.402344 143.683594 100.328125 C 143.957031 102.214844 144.546875 104.253906 145.660156 105.882812 C 146.480469 107.089844 147.597656 108.066406 149.101562 108.535156 Z M 149.101562 108.535156 " fill-opacity="1" fill-rule="nonzero"/></g></svg>