<svg xmlns="http://www.w3.org/2000/svg" xmlns:xlink="http://www.w3.org/1999/xlink" width="200" zoomAndPan="magnify" viewBox="0 0 150 157.92" height="200" preserveAspectRatio="xMidYMid meet" version="1.0"><defs><clipPath id="ef7204454b"><path d="M 0.0390625 11 L 44 11 L 44 69 L 0.0390625 69 Z M 0.0390625 11 " clip-rule="nonzero"/></clipPath><clipPath id="5856e3b518"><path d="M 106 81 L 149.960938 81 L 149.960938 139.898438 L 106 139.898438 Z M 106 81 " clip-rule="nonzero"/></clipPath></defs><path fill="#ed9896" d="M 123.691406 41.398438 C 137.914062 70.472656 134.359375 108.125 111.351562 124.648438 C 96.992188 134.960938 53.007812 134.960938 38.648438 124.648438 C 15.636719 108.125 12.082031 70.472656 26.304688 41.398438 C 41.558594 10.214844 108.4375 10.214844 123.691406 41.398438 Z M 123.691406 41.398438 " fill-opacity="1" fill-rule="nonzero"/><path fill="#332c2b" d="M 70.980469 104.765625 C 70.917969 104.753906 70.855469 104.746094 70.792969 104.730469 C 68.300781 104.214844 67.761719 101.480469 67.484375 99.367188 C 67.136719 96.707031 67.101562 93.664062 67.003906 90.976562 C 66.835938 86.46875 66.714844 81.953125 66.609375 77.441406 C 66.4375 70.300781 66.273438 63.140625 66.203125 55.996094 C 66.164062 51.378906 66.023438 48.835938 69.148438 45.300781 C 70.886719 43.332031 73.59375 40.71875 76.460938 42.117188 C 77.863281 42.804688 78.550781 44.171875 78.898438 45.695312 C 79.164062 45.761719 79.433594 45.855469 79.699219 45.988281 C 82.46875 47.339844 82.449219 51.335938 82.5625 53.980469 C 82.800781 59.367188 83.027344 64.757812 83.234375 70.148438 C 83.46875 76.117188 83.765625 82.210938 83.765625 88.183594 C 83.765625 90.832031 83.996094 94.304688 83.367188 96.863281 C 82.867188 98.890625 81.761719 100.789062 80.734375 102.582031 C 79.984375 103.882812 79.1875 105.28125 78.269531 106.472656 C 77.242188 107.8125 75.863281 108.980469 74.035156 108.601562 C 72.113281 108.203125 71.355469 106.496094 70.980469 104.765625 Z M 70.980469 104.765625 " fill-opacity="1" fill-rule="nonzero"/><path fill="#2db2a8" d="M 76.558594 50.230469 C 76.917969 58.402344 77.757812 78.222656 77.757812 84.3125 C 77.757812 92.050781 78.125 92.054688 75.09375 97.335938 C 72.058594 102.617188 70.855469 103.820312 70.226562 99.007812 C 69.601562 94.195312 69.023438 61.617188 68.972656 55.96875 C 68.921875 50.320312 69.234375 49.378906 71.222656 47.132812 C 76.253906 41.4375 76.378906 46.171875 76.558594 50.230469 Z M 76.558594 50.230469 " fill-opacity="1" fill-rule="nonzero"/><g clip-path="url(#ef7204454b)"><path fill="#f0c847" d="M 16.382812 32.820312 C 14.6875 32.394531 14.621094 30.210938 16.289062 29.707031 C 19.46875 28.742188 21.824219 26.6875 23.550781 24.160156 C 25.882812 20.746094 27.09375 16.476562 27.652344 12.730469 C 27.753906 10.8125 30.921875 10.679688 31.199219 12.601562 C 31.773438 16.523438 32.996094 20.765625 35.3125 24.160156 C 37.023438 26.664062 39.351562 28.699219 42.480469 29.675781 C 44.175781 30.101562 44.242188 32.285156 42.578125 32.789062 C 39.394531 33.753906 37.039062 35.808594 35.3125 38.335938 C 32.980469 41.75 31.773438 46.019531 31.214844 49.765625 C 31.109375 51.683594 27.945312 51.816406 27.664062 49.894531 C 27.09375 45.972656 25.867188 41.730469 23.550781 38.335938 C 21.839844 35.832031 19.515625 33.796875 16.382812 32.820312 Z M 14.78125 59.988281 C 13.964844 59.785156 13.9375 58.738281 14.734375 58.496094 C 16.261719 58.03125 17.390625 57.046875 18.21875 55.832031 C 19.339844 54.191406 19.921875 52.144531 20.1875 50.34375 C 20.238281 49.421875 21.761719 49.359375 21.894531 50.285156 C 22.167969 52.164062 22.753906 54.203125 23.867188 55.832031 C 24.6875 57.035156 25.808594 58.011719 27.308594 58.480469 C 28.125 58.683594 28.15625 59.730469 27.355469 59.976562 C 25.828125 60.4375 24.695312 61.425781 23.867188 62.636719 C 22.75 64.277344 22.167969 66.324219 21.898438 68.125 C 21.851562 69.046875 20.332031 69.109375 20.199219 68.1875 C 19.921875 66.304688 19.335938 64.265625 18.21875 62.636719 C 17.398438 61.433594 16.285156 60.457031 14.78125 59.988281 Z M 0.902344 42 C 0.0859375 41.796875 0.0546875 40.746094 0.855469 40.503906 C 2.378906 40.042969 3.511719 39.054688 4.339844 37.84375 C 5.460938 36.203125 6.039062 34.152344 6.308594 32.355469 C 6.359375 31.433594 7.878906 31.371094 8.015625 32.292969 C 8.285156 34.175781 8.875 36.214844 9.988281 37.84375 C 10.808594 39.042969 11.925781 40.023438 13.429688 40.492188 C 14.242188 40.695312 14.273438 41.742188 13.476562 41.984375 C 11.949219 42.449219 10.816406 43.433594 9.988281 44.648438 C 8.871094 46.289062 8.285156 48.335938 8.019531 50.136719 C 7.972656 51.058594 6.449219 51.117188 6.316406 50.195312 C 6.042969 48.316406 5.453125 46.277344 4.339844 44.648438 C 3.519531 43.445312 2.402344 42.46875 0.902344 42 Z M 0.902344 42 " fill-opacity="1" fill-rule="nonzero"/></g><g clip-path="url(#5856e3b518)"><path fill="#f0c847" d="M 133.617188 117.574219 C 135.3125 118 135.375 120.183594 133.710938 120.6875 C 130.53125 121.652344 128.175781 123.707031 126.449219 126.234375 C 124.121094 129.648438 122.90625 133.917969 122.351562 137.664062 C 122.246094 139.582031 119.078125 139.710938 118.796875 137.792969 C 118.230469 133.871094 117.003906 129.628906 114.683594 126.234375 C 112.976562 123.730469 110.648438 121.695312 107.515625 120.71875 C 105.824219 120.292969 105.757812 118.109375 107.425781 117.605469 C 110.601562 116.640625 112.957031 114.585938 114.683594 112.058594 C 117.015625 108.644531 118.230469 104.375 118.789062 100.628906 C 118.890625 98.710938 122.058594 98.578125 122.335938 100.5 C 122.90625 104.421875 124.132812 108.664062 126.449219 112.058594 C 128.160156 114.5625 130.484375 116.597656 133.617188 117.574219 Z M 135.222656 90.40625 C 136.03125 90.609375 136.066406 91.65625 135.265625 91.898438 C 133.738281 92.363281 132.605469 93.347656 131.777344 94.5625 C 130.660156 96.203125 130.078125 98.25 129.808594 100.050781 C 129.761719 100.96875 128.242188 101.035156 128.105469 100.109375 C 127.832031 98.230469 127.242188 96.191406 126.128906 94.5625 C 125.308594 93.359375 124.195312 92.382812 122.691406 91.914062 C 121.875 91.710938 121.847656 90.660156 122.644531 90.417969 C 124.171875 89.957031 125.300781 88.96875 126.128906 87.757812 C 127.25 86.117188 127.832031 84.066406 128.097656 82.269531 C 128.152344 81.347656 129.671875 81.285156 129.804688 82.207031 C 130.078125 84.089844 130.664062 86.125 131.777344 87.757812 C 132.597656 88.960938 133.714844 89.9375 135.222656 90.40625 Z M 149.101562 108.394531 C 149.914062 108.597656 149.945312 109.648438 149.144531 109.890625 C 147.621094 110.351562 146.488281 111.339844 145.660156 112.550781 C 144.539062 114.191406 143.957031 116.242188 143.6875 118.039062 C 143.640625 118.960938 142.121094 119.023438 141.988281 118.101562 C 141.710938 116.21875 141.125 114.179688 140.011719 112.550781 C 139.191406 111.347656 138.074219 110.371094 136.570312 109.902344 C 135.757812 109.699219 135.726562 108.652344 136.527344 108.410156 C 138.050781 107.945312 139.183594 106.960938 140.011719 105.746094 C 141.132812 104.109375 141.710938 102.058594 141.980469 100.257812 C 142.03125 99.335938 143.550781 99.273438 143.683594 100.199219 C 143.957031 102.078125 144.546875 104.117188 145.660156 105.746094 C 146.480469 106.949219 147.597656 107.925781 149.101562 108.394531 Z M 149.101562 108.394531 " fill-opacity="1" fill-rule="nonzero"/></g></svg>