<svg xmlns="http://www.w3.org/2000/svg" xmlns:xlink="http://www.w3.org/1999/xlink" width="200" zoomAndPan="magnify" viewBox="0 0 150 157.92" height="200" preserveAspectRatio="xMidYMid meet" version="1.0"><defs><clipPath id="56b0cf130a"><path d="M 0.0390625 11 L 44 11 L 44 69 L 0.0390625 69 Z M 0.0390625 11 " clip-rule="nonzero"/></clipPath><clipPath id="620a3b793e"><path d="M 106 81 L 149.960938 81 L 149.960938 139.898438 L 106 139.898438 Z M 106 81 " clip-rule="nonzero"/></clipPath></defs><path fill="#a9d2f2" d="M 123.695312 41.441406 C 137.917969 70.558594 134.363281 108.265625 111.355469 124.8125 C 96.996094 135.140625 53.007812 135.140625 38.648438 124.8125 C 15.640625 108.265625 12.082031 70.558594 26.304688 41.441406 C 41.5625 10.214844 108.441406 10.214844 123.695312 41.441406 Z M 123.695312 41.441406 " fill-opacity="1" fill-rule="nonzero"/><path fill="#ffffff" d="M 71.550781 118.007812 C 71.257812 118.007812 70.960938 117.980469 70.667969 117.929688 C 68.644531 117.570312 67.210938 116.175781 66.597656 114.027344 C 64.304688 113.359375 62.886719 111.199219 62.769531 108.132812 C 62.667969 105.625 61.195312 101.710938 60.222656 99.125 L 60.140625 98.90625 C 59.277344 96.605469 58.363281 94.277344 57.480469 92.023438 C 56.371094 89.191406 55.222656 86.261719 54.152344 83.339844 C 51.921875 77.234375 51.207031 71.957031 51.964844 67.203125 C 52.542969 63.582031 53.945312 60.308594 56.515625 56.585938 C 56.859375 56.089844 57.238281 55.617188 57.664062 55.152344 C 57.679688 53.316406 57.5625 51.457031 57.441406 49.847656 C 56.9375 43.054688 59.855469 37.070312 65.058594 34.230469 C 67.070312 33.132812 69.261719 32.574219 71.570312 32.574219 C 74.609375 32.574219 77.726562 33.546875 80.585938 35.386719 C 84.160156 37.683594 87.300781 40.476562 89.675781 43.476562 C 91.976562 45.609375 93.875 47.917969 95.320312 50.335938 C 97.34375 53.726562 99.398438 58.941406 97.710938 64.550781 C 95.539062 71.757812 90.425781 75.261719 82.085938 75.261719 C 80.503906 75.261719 78.792969 75.140625 76.851562 74.894531 L 76.640625 74.867188 C 75.628906 74.734375 72.554688 74.328125 70.585938 74.328125 C 70.449219 74.328125 70.328125 74.332031 70.222656 74.335938 C 70.203125 74.542969 70.191406 74.761719 70.1875 74.933594 C 70.132812 77.804688 71.460938 82.035156 72.175781 84.308594 C 73.046875 87.089844 74.027344 89.90625 74.976562 92.632812 C 75.601562 94.425781 76.246094 96.285156 76.859375 98.121094 C 78.191406 102.125 78.566406 106.425781 77.917969 110.226562 C 77.632812 111.898438 77.179688 113.347656 76.5625 114.535156 C 75.421875 116.742188 73.59375 118.007812 71.550781 118.007812 Z M 71.550781 118.007812 " fill-opacity="1" fill-rule="nonzero"/><path fill="#5d261c" d="M 59.460938 55.894531 C 59.515625 53.84375 59.394531 51.730469 59.246094 49.710938 C 58.835938 44.222656 60.902344 38.558594 65.921875 35.820312 C 70.378906 33.386719 75.46875 34.25 79.605469 36.910156 C 82.839844 38.988281 85.929688 41.628906 88.34375 44.710938 C 90.457031 46.652344 92.328125 48.855469 93.769531 51.265625 C 96.054688 55.09375 97.300781 59.636719 95.980469 64.027344 C 93.207031 73.21875 85.519531 74.179688 77.082031 73.097656 C 76.042969 72.964844 69.53125 72.0625 68.738281 72.816406 C 68.457031 73.085938 68.386719 74.554688 68.378906 74.902344 C 68.324219 77.925781 69.546875 81.980469 70.449219 84.851562 C 71.90625 89.496094 73.605469 94.074219 75.144531 98.695312 C 76.324219 102.242188 76.765625 106.21875 76.132812 109.921875 C 75.917969 111.195312 75.554688 112.550781 74.957031 113.699219 C 74.183594 115.199219 72.8125 116.46875 70.980469 116.144531 C 69.0625 115.804688 68.3125 114.128906 68.125 112.425781 C 67.914062 112.429688 67.699219 112.414062 67.476562 112.375 C 65.332031 111.996094 64.648438 109.945312 64.574219 108.0625 C 64.460938 105.183594 62.847656 100.960938 61.832031 98.265625 C 59.882812 93.066406 57.761719 87.941406 55.851562 82.71875 C 54.089844 77.898438 52.929688 72.628906 53.75 67.488281 C 54.347656 63.742188 55.875 60.703125 58.003906 57.617188 C 58.4375 56.988281 58.925781 56.421875 59.460938 55.894531 Z M 59.460938 55.894531 " fill-opacity="1" fill-rule="nonzero"/><path fill="#ed9896" d="M 65.664062 55.402344 C 66.128906 54.433594 66.675781 52.886719 66.765625 50.863281 C 66.921875 47.25 68.335938 43.320312 75.496094 48.457031 C 82.660156 53.585938 83.1875 55.472656 76.4375 55 C 72.464844 54.726562 68.746094 54.519531 65.664062 55.402344 Z M 62.148438 57.171875 C 61.460938 57.722656 60.835938 58.386719 60.28125 59.191406 C 56.882812 64.113281 54.160156 70.03125 58.449219 81.761719 C 62.738281 93.492188 67.128906 102.710938 67.339844 107.949219 C 67.546875 113.183594 72.253906 105.539062 69.011719 95.796875 C 65.769531 86.054688 62.003906 76.734375 62.109375 71.078125 C 62.214844 65.421875 64.933594 65.421875 73.929688 66.578125 C 82.921875 67.726562 87.839844 66.050781 89.824219 59.453125 C 91.8125 52.855469 86.582031 44.683594 78.113281 39.238281 C 69.636719 33.792969 61.273438 39.65625 62.003906 49.503906 C 62.269531 53.054688 62.273438 55.488281 62.171875 57.148438 Z M 62.148438 57.171875 " fill-opacity="1" fill-rule="nonzero"/><g clip-path="url(#56b0cf130a)"><path fill="#f0c847" d="M 16.378906 32.851562 C 14.6875 32.425781 14.621094 30.238281 16.285156 29.734375 C 19.46875 28.765625 21.824219 26.710938 23.550781 24.179688 C 25.878906 20.761719 27.089844 16.484375 27.648438 12.734375 C 27.753906 10.8125 30.917969 10.679688 31.199219 12.605469 C 31.769531 16.53125 32.996094 20.78125 35.3125 24.179688 C 37.023438 26.6875 39.347656 28.726562 42.480469 29.703125 C 44.175781 30.128906 44.242188 32.316406 42.574219 32.820312 C 39.394531 33.789062 37.039062 35.84375 35.3125 38.375 C 32.980469 41.792969 31.769531 46.070312 31.210938 49.820312 C 31.105469 51.742188 27.941406 51.875 27.660156 49.949219 C 27.089844 46.023438 25.867188 41.773438 23.550781 38.375 C 21.839844 35.867188 19.511719 33.828125 16.378906 32.851562 Z M 14.777344 60.058594 C 13.964844 59.855469 13.933594 58.808594 14.734375 58.5625 C 16.257812 58.097656 17.390625 57.113281 18.21875 55.898438 C 19.339844 54.253906 19.917969 52.203125 20.1875 50.402344 C 20.238281 49.480469 21.757812 49.417969 21.894531 50.339844 C 22.167969 52.226562 22.753906 54.265625 23.867188 55.898438 C 24.6875 57.101562 25.804688 58.078125 27.308594 58.550781 C 28.121094 58.753906 28.152344 59.804688 27.355469 60.046875 C 25.828125 60.511719 24.695312 61.496094 23.867188 62.710938 C 22.75 64.351562 22.167969 66.40625 21.898438 68.207031 C 21.847656 69.128906 20.328125 69.191406 20.195312 68.269531 C 19.917969 66.382812 19.332031 64.34375 18.21875 62.710938 C 17.398438 61.507812 16.28125 60.527344 14.777344 60.058594 Z M 0.898438 42.042969 C 0.0820312 41.839844 0.0546875 40.792969 0.855469 40.546875 C 2.378906 40.085938 3.507812 39.097656 4.339844 37.882812 C 5.460938 36.242188 6.039062 34.1875 6.308594 32.386719 C 6.359375 31.464844 7.878906 31.402344 8.011719 32.324219 C 8.285156 34.210938 8.875 36.25 9.984375 37.882812 C 10.808594 39.085938 11.925781 40.0625 13.429688 40.535156 C 14.238281 40.738281 14.273438 41.789062 13.472656 42.03125 C 11.945312 42.496094 10.8125 43.480469 9.984375 44.695312 C 8.867188 46.339844 8.285156 48.390625 8.015625 50.191406 C 7.96875 51.113281 6.449219 51.175781 6.3125 50.253906 C 6.039062 48.371094 5.449219 46.328125 4.339844 44.695312 C 3.515625 43.492188 2.402344 42.515625 0.898438 42.042969 Z M 0.898438 42.042969 " fill-opacity="1" fill-rule="nonzero"/></g><g clip-path="url(#620a3b793e)"><path fill="#f0c847" d="M 133.621094 117.730469 C 135.3125 118.15625 135.378906 120.34375 133.714844 120.847656 C 130.535156 121.816406 128.175781 123.871094 126.449219 126.402344 C 124.121094 129.820312 122.910156 134.097656 122.351562 137.851562 C 122.25 139.769531 119.082031 139.902344 118.804688 137.976562 C 118.230469 134.050781 117.003906 129.800781 114.6875 126.402344 C 112.976562 123.894531 110.652344 121.855469 107.519531 120.878906 C 105.824219 120.453125 105.757812 118.265625 107.425781 117.761719 C 110.605469 116.792969 112.960938 114.738281 114.6875 112.207031 C 117.019531 108.789062 118.230469 104.511719 118.789062 100.757812 C 118.894531 98.835938 122.058594 98.707031 122.339844 100.632812 C 122.910156 104.558594 124.132812 108.808594 126.453125 112.207031 C 128.160156 114.714844 130.488281 116.753906 133.621094 117.730469 Z M 135.222656 90.519531 C 136.035156 90.726562 136.066406 91.773438 135.265625 92.019531 C 133.742188 92.484375 132.609375 93.46875 131.78125 94.683594 C 130.660156 96.324219 130.082031 98.378906 129.8125 100.179688 C 129.761719 101.101562 128.242188 101.164062 128.109375 100.242188 C 127.835938 98.355469 127.246094 96.316406 126.132812 94.683594 C 125.3125 93.480469 124.195312 92.5 122.691406 92.03125 C 121.878906 91.828125 121.847656 90.777344 122.644531 90.535156 C 124.175781 90.070312 125.304688 89.085938 126.132812 87.867188 C 127.25 86.226562 127.835938 84.175781 128.101562 82.375 C 128.152344 81.453125 129.671875 81.390625 129.804688 82.3125 C 130.082031 84.199219 130.667969 86.238281 131.78125 87.867188 C 132.601562 89.074219 133.71875 90.050781 135.222656 90.519531 Z M 149.101562 108.535156 C 149.917969 108.738281 149.945312 109.789062 149.148438 110.03125 C 147.621094 110.5 146.492188 111.484375 145.664062 112.699219 C 144.542969 114.339844 143.960938 116.394531 143.695312 118.195312 C 143.640625 119.117188 142.121094 119.179688 141.988281 118.257812 C 141.714844 116.371094 141.125 114.332031 140.015625 112.699219 C 139.195312 111.496094 138.074219 110.515625 136.574219 110.046875 C 135.761719 109.84375 135.726562 108.792969 136.527344 108.550781 C 138.054688 108.085938 139.1875 107.097656 140.015625 105.882812 C 141.132812 104.242188 141.714844 102.191406 141.984375 100.390625 C 142.03125 99.464844 143.550781 99.402344 143.6875 100.328125 C 143.960938 102.214844 144.550781 104.253906 145.664062 105.882812 C 146.484375 107.089844 147.597656 108.066406 149.101562 108.535156 Z M 149.101562 108.535156 " fill-opacity="1" fill-rule="nonzero"/></g></svg>