<svg xmlns="http://www.w3.org/2000/svg" xmlns:xlink="http://www.w3.org/1999/xlink" width="200" zoomAndPan="magnify" viewBox="0 0 150 157.92" height="200" preserveAspectRatio="xMidYMid meet" version="1.0"><defs><clipPath id="0fa472cb34"><path d="M 0.0390625 13 L 44 13 L 44 72 L 0.0390625 72 Z M 0.0390625 13 " clip-rule="nonzero"/></clipPath><clipPath id="a222da1401"><path d="M 106 83 L 149.960938 83 L 149.960938 142 L 106 142 Z M 106 83 " clip-rule="nonzero"/></clipPath></defs><path fill="#e75619" d="M 123.695312 43.75 C 137.917969 72.871094 134.363281 110.574219 111.355469 127.125 C 96.996094 137.453125 53.007812 137.453125 38.648438 127.125 C 15.640625 110.574219 12.082031 72.871094 26.304688 43.75 C 41.558594 12.523438 108.4375 12.523438 123.695312 43.75 Z M 123.695312 43.75 " fill-opacity="1" fill-rule="nonzero"/><path fill="#ffffff" d="M 75.386719 116.164062 C 71.386719 116.164062 67.421875 115.46875 63.917969 114.15625 C 59.914062 112.652344 56.75 110.453125 54.515625 107.617188 C 51.359375 105.132812 49.292969 101.996094 48.375 98.285156 C 46.605469 91.15625 47.003906 84.121094 49.523438 77.945312 C 50.6875 75.097656 53.046875 70.941406 55.871094 68.613281 C 56.800781 67.847656 57.945312 67.421875 59.089844 67.421875 C 59.59375 67.421875 60.097656 67.503906 60.582031 67.664062 C 61.675781 68.023438 63 68.839844 63.664062 70.707031 C 67.5625 72.003906 67.21875 76.382812 67.050781 78.492188 C 66.910156 80.230469 66.6875 81.976562 66.46875 83.667969 C 66.414062 84.117188 66.355469 84.570312 66.296875 85.019531 L 66.292969 85.066406 C 66.09375 86.679688 65.886719 88.347656 65.773438 89.960938 C 65.757812 90.164062 65.765625 90.355469 65.789062 90.542969 C 67.261719 91.097656 69.191406 91.398438 71.320312 91.398438 C 72.113281 91.398438 72.910156 91.355469 73.625 91.269531 C 80.582031 90.464844 82.890625 89 83.605469 87.914062 C 84.089844 87.179688 84.179688 86.003906 83.882812 84.421875 C 83.433594 82.0625 82.316406 80.164062 80.660156 77.859375 C 80.503906 77.640625 80.339844 77.417969 80.175781 77.195312 C 78.601562 75.039062 76.816406 72.59375 76.738281 69.511719 C 76.703125 68.089844 77.058594 66.648438 77.773438 65.34375 L 78.023438 64.882812 C 78.503906 64.007812 79 63.097656 79.519531 62.210938 C 79.527344 62.199219 79.53125 62.1875 79.539062 62.175781 C 79.070312 62.289062 78.585938 62.347656 78.082031 62.347656 C 75.230469 62.347656 72.628906 60.476562 70.921875 59.066406 C 70.050781 58.347656 69.324219 57.5625 68.761719 56.738281 C 68.476562 56.527344 68.1875 56.296875 67.863281 56.03125 C 65.628906 54.1875 64.402344 52.011719 64.214844 49.5625 C 63.996094 46.753906 65.195312 43.789062 67.683594 40.988281 C 68.332031 40.257812 69.152344 39.699219 70.058594 39.375 C 70.675781 39.15625 71.316406 39.046875 71.964844 39.046875 C 75.128906 39.046875 77.714844 41.722656 78.960938 43.007812 C 79.234375 43.292969 79.550781 43.589844 79.878906 43.902344 C 80.367188 44.363281 80.867188 44.835938 81.339844 45.359375 C 81.578125 45.589844 81.796875 45.816406 82.007812 46.03125 C 82.007812 46.035156 82.019531 46.042969 82.019531 46.042969 C 82.292969 46.328125 82.605469 46.625 82.9375 46.9375 C 84.757812 48.65625 87.761719 51.503906 85.621094 55.332031 C 86.546875 54.851562 87.570312 54.558594 88.6875 54.558594 C 88.78125 54.558594 88.875 54.558594 88.96875 54.5625 C 90.609375 54.636719 92.894531 55.363281 94.695312 58.320312 C 96.730469 59.382812 98.25 61.558594 99.324219 64.941406 C 103.488281 78.074219 103.824219 91.308594 100.238281 101.253906 C 99.359375 103.683594 98.027344 105.898438 96.277344 107.835938 C 92.015625 112.566406 85.207031 115.570312 77.605469 116.089844 C 76.878906 116.136719 76.132812 116.164062 75.386719 116.164062 Z M 75.386719 116.164062 " fill-opacity="1" fill-rule="nonzero"/><path fill="#5d261c" d="M 55.800781 106.324219 C 53.089844 104.242188 51.023438 101.449219 50.132812 97.851562 C 48.539062 91.429688 48.683594 84.792969 51.195312 78.632812 C 52.371094 75.753906 54.574219 72.027344 57.019531 70.011719 C 57.863281 69.316406 58.957031 69.035156 60.019531 69.382812 C 61.4375 69.851562 62 70.988281 62.191406 72.269531 C 62.484375 72.277344 62.785156 72.324219 63.078125 72.421875 C 65.617188 73.253906 65.414062 76.246094 65.246094 78.347656 C 65.078125 80.496094 64.769531 82.65625 64.503906 84.792969 C 64.296875 86.464844 64.085938 88.15625 63.96875 89.835938 C 63.925781 90.46875 64 91.089844 64.214844 91.6875 C 64.234375 91.746094 64.257812 91.804688 64.28125 91.863281 C 67.191406 93.28125 71.273438 93.367188 73.832031 93.070312 C 76.980469 92.703125 83.191406 91.839844 85.117188 88.90625 C 86.039062 87.5 85.957031 85.667969 85.660156 84.085938 C 85.125 81.277344 83.769531 79.082031 82.128906 76.800781 C 80.570312 74.632812 78.617188 72.269531 78.546875 69.464844 C 78.515625 68.320312 78.8125 67.214844 79.359375 66.210938 C 79.925781 65.179688 80.488281 64.140625 81.082031 63.125 C 82.675781 60.394531 85.265625 56.214844 88.890625 56.375 C 91.042969 56.46875 92.460938 57.949219 93.414062 59.722656 C 95.679688 60.617188 96.890625 63.257812 97.597656 65.488281 C 101.054688 76.378906 102.464844 89.738281 98.535156 100.640625 C 97.734375 102.859375 96.515625 104.871094 94.933594 106.625 C 90.550781 111.484375 83.882812 113.847656 77.484375 114.28125 C 69.9375 114.792969 60.566406 112.542969 55.800781 106.324219 Z M 80.039062 46.617188 C 80.277344 46.847656 80.503906 47.082031 80.722656 47.304688 C 82.675781 49.324219 85.9375 51.464844 83.886719 54.707031 C 83.535156 55.257812 83.238281 56.011719 82.941406 56.609375 C 82.382812 57.726562 81.714844 58.863281 80.707031 59.632812 C 77.84375 61.832031 74.363281 59.558594 72.070312 57.671875 C 71.222656 56.96875 70.570312 56.234375 70.09375 55.472656 C 69.710938 55.195312 69.351562 54.910156 69.011719 54.632812 C 64.488281 50.898438 65.519531 46.148438 69.035156 42.191406 C 69.476562 41.691406 70.03125 41.308594 70.664062 41.082031 C 73.398438 40.109375 75.921875 42.46875 77.664062 44.265625 C 78.386719 45.015625 79.292969 45.785156 80.039062 46.617188 Z M 80.039062 46.617188 " fill-opacity="1" fill-rule="nonzero"/><path fill="#a9d2f2" d="M 91.902344 63.292969 C 93.699219 68.949219 97.507812 83.820312 92.875 96.660156 C 87.019531 112.894531 56.476562 111.953125 52.816406 97.183594 C 49.15625 82.414062 57 73.617188 58.777344 72.152344 C 60.558594 70.683594 58.570312 80.636719 58.148438 86.605469 C 57.734375 92.574219 64.21875 96.972656 74.152344 95.820312 C 84.089844 94.667969 89.945312 91.839844 88.375 83.566406 C 86.808594 75.292969 79.378906 71.941406 81.789062 67.542969 C 84.597656 62.402344 88.972656 54.042969 91.902344 63.292969 Z M 71.101562 44.03125 C 71.980469 43.042969 73.480469 43.921875 75.675781 46.195312 C 77.867188 48.464844 79.183594 49.085938 78.488281 50.1875 C 77.796875 51.285156 77.0625 53.554688 75.964844 54.398438 C 74.867188 55.238281 73.058594 54.378906 70.773438 52.492188 C 67.582031 49.859375 68.585938 46.871094 71.101562 44.03125 Z M 71.101562 44.03125 " fill-opacity="1" fill-rule="nonzero"/><g clip-path="url(#0fa472cb34)"><path fill="#f0c847" d="M 16.378906 35.164062 C 14.6875 34.738281 14.621094 32.550781 16.285156 32.042969 C 19.464844 31.078125 21.824219 29.019531 23.550781 26.488281 C 25.878906 23.074219 27.089844 18.796875 27.648438 15.042969 C 27.75 13.121094 30.917969 12.992188 31.199219 14.914062 C 31.769531 18.84375 32.996094 23.089844 35.3125 26.488281 C 37.023438 28.996094 39.347656 31.035156 42.480469 32.015625 C 44.175781 32.4375 44.242188 34.625 42.574219 35.132812 C 39.394531 36.097656 37.039062 38.15625 35.3125 40.6875 C 32.980469 44.105469 31.769531 48.382812 31.210938 52.132812 C 31.105469 54.054688 27.941406 54.183594 27.660156 52.261719 C 27.089844 48.335938 25.867188 44.085938 23.550781 40.6875 C 21.839844 38.179688 19.511719 36.140625 16.378906 35.164062 Z M 14.777344 62.371094 C 13.964844 62.167969 13.933594 61.117188 14.734375 60.875 C 16.257812 60.410156 17.390625 59.421875 18.21875 58.207031 C 19.339844 56.566406 19.917969 54.515625 20.1875 52.710938 C 20.238281 51.789062 21.757812 51.726562 21.890625 52.652344 C 22.164062 54.535156 22.753906 56.578125 23.867188 58.207031 C 24.6875 59.410156 25.804688 60.390625 27.308594 60.859375 C 28.121094 61.066406 28.152344 62.113281 27.351562 62.359375 C 25.824219 62.820312 24.695312 63.808594 23.867188 65.023438 C 22.75 66.664062 22.164062 68.71875 21.898438 70.519531 C 21.847656 71.441406 20.328125 71.503906 20.195312 70.578125 C 19.917969 68.695312 19.332031 66.65625 18.21875 65.023438 C 17.398438 63.820312 16.28125 62.839844 14.777344 62.371094 Z M 0.898438 44.355469 C 0.0820312 44.152344 0.0546875 43.101562 0.851562 42.859375 C 2.378906 42.394531 3.507812 41.410156 4.339844 40.191406 C 5.460938 38.550781 6.039062 36.5 6.308594 34.695312 C 6.359375 33.773438 7.878906 33.710938 8.011719 34.636719 C 8.285156 36.519531 8.875 38.5625 9.984375 40.191406 C 10.804688 41.398438 11.925781 42.375 13.429688 42.847656 C 14.238281 43.050781 14.273438 44.097656 13.472656 44.339844 C 11.945312 44.804688 10.8125 45.792969 9.984375 47.007812 C 8.867188 48.648438 8.285156 50.703125 8.015625 52.503906 C 7.96875 53.425781 6.449219 53.488281 6.3125 52.566406 C 6.039062 50.679688 5.449219 48.640625 4.335938 47.007812 C 3.515625 45.804688 2.402344 44.824219 0.898438 44.355469 Z M 0.898438 44.355469 " fill-opacity="1" fill-rule="nonzero"/></g><g clip-path="url(#a222da1401)"><path fill="#f0c847" d="M 133.621094 120.042969 C 135.3125 120.464844 135.378906 122.652344 133.714844 123.160156 C 130.535156 124.125 128.175781 126.183594 126.449219 128.714844 C 124.121094 132.132812 122.910156 136.410156 122.351562 140.160156 C 122.246094 142.082031 119.082031 142.210938 118.800781 140.289062 C 118.230469 136.363281 117.003906 132.113281 114.6875 128.714844 C 112.976562 126.207031 110.652344 124.167969 107.519531 123.1875 C 105.824219 122.765625 105.757812 120.578125 107.425781 120.070312 C 110.605469 119.105469 112.960938 117.046875 114.6875 114.515625 C 117.019531 111.097656 118.230469 106.820312 118.789062 103.070312 C 118.894531 101.148438 122.058594 101.019531 122.339844 102.941406 C 122.910156 106.867188 124.132812 111.117188 126.449219 114.515625 C 128.160156 117.023438 130.488281 119.0625 133.621094 120.042969 Z M 135.222656 92.832031 C 136.035156 93.035156 136.066406 94.085938 135.265625 94.328125 C 133.742188 94.792969 132.609375 95.78125 131.78125 96.996094 C 130.660156 98.636719 130.082031 100.6875 129.8125 102.492188 C 129.761719 103.414062 128.242188 103.476562 128.109375 102.550781 C 127.835938 100.667969 127.246094 98.628906 126.132812 96.996094 C 125.3125 95.792969 124.195312 94.8125 122.691406 94.34375 C 121.878906 94.140625 121.847656 93.089844 122.644531 92.847656 C 124.171875 92.382812 125.304688 91.394531 126.132812 90.179688 C 127.25 88.539062 127.835938 86.488281 128.101562 84.683594 C 128.152344 83.761719 129.671875 83.699219 129.804688 84.625 C 130.082031 86.507812 130.667969 88.550781 131.78125 90.179688 C 132.601562 91.382812 133.71875 92.363281 135.222656 92.832031 Z M 149.101562 110.847656 C 149.917969 111.050781 149.945312 112.101562 149.144531 112.34375 C 147.621094 112.808594 146.492188 113.796875 145.660156 115.011719 C 144.539062 116.652344 143.960938 118.703125 143.691406 120.507812 C 143.640625 121.429688 142.121094 121.492188 141.988281 120.566406 C 141.714844 118.683594 141.125 116.644531 140.015625 115.011719 C 139.195312 113.808594 138.074219 112.828125 136.570312 112.359375 C 135.761719 112.15625 135.726562 111.105469 136.527344 110.863281 C 138.054688 110.398438 139.1875 109.410156 140.015625 108.195312 C 141.132812 106.554688 141.714844 104.5 141.984375 102.699219 C 142.03125 101.777344 143.550781 101.714844 143.6875 102.640625 C 143.960938 104.523438 144.550781 106.5625 145.660156 108.195312 C 146.484375 109.398438 147.597656 110.378906 149.101562 110.847656 Z M 149.101562 110.847656 " fill-opacity="1" fill-rule="nonzero"/></g></svg>