<svg xmlns="http://www.w3.org/2000/svg" xmlns:xlink="http://www.w3.org/1999/xlink" width="200" zoomAndPan="magnify" viewBox="0 0 150 149.999998" height="200" preserveAspectRatio="xMidYMid meet" version="1.0"><defs><clipPath id="e5feb9098b"><path d="M 106 81 L 150 81 L 150 139.96875 L 106 139.96875 Z M 106 81 " clip-rule="nonzero"/></clipPath></defs><path fill="#a9d2f2" d="M 123.714844 41.464844 C 137.949219 70.597656 134.390625 108.324219 111.371094 124.878906 C 97.003906 135.210938 52.996094 135.210938 38.628906 124.878906 C 15.609375 108.324219 12.050781 70.597656 26.28125 41.464844 C 41.542969 10.222656 108.453125 10.222656 123.714844 41.464844 Z M 123.714844 41.464844 " fill-opacity="1" fill-rule="nonzero"/><path fill="#ffffff" d="M 73.824219 115.371094 C 63.761719 115.371094 55.824219 112.058594 51.429688 106.035156 C 47.101562 102.539062 44.675781 97.714844 44.210938 91.6875 C 43.621094 83.996094 44.03125 77.480469 45.433594 72.316406 C 46.039062 70.089844 46.765625 68.335938 47.660156 66.953125 C 48.980469 64.917969 50.835938 63.75 52.75 63.75 C 53.285156 63.75 53.828125 63.839844 54.355469 64.015625 C 55.539062 64.410156 56.953125 65.347656 57.558594 67.554688 C 57.640625 67.578125 57.722656 67.601562 57.808594 67.628906 C 61.6875 68.925781 61.386719 73.335938 61.222656 75.703125 C 61.214844 75.859375 61.203125 76.011719 61.195312 76.15625 C 61.164062 76.636719 61.132812 77.117188 61.101562 77.59375 C 60.960938 79.757812 60.828125 81.800781 60.835938 83.886719 C 60.847656 86.695312 61.132812 88.433594 61.429688 89.488281 C 64.117188 90.871094 67.835938 91.761719 70.488281 92.039062 C 71.457031 92.140625 72.417969 92.191406 73.34375 92.191406 C 74.855469 92.191406 76.265625 92.054688 77.546875 91.789062 C 75.699219 90.667969 74.132812 89.183594 72.914062 87.375 C 68.191406 83.863281 65.945312 77.878906 66.902344 71.292969 C 67.527344 66.960938 69.539062 61.335938 73.339844 57.335938 C 72.71875 56.929688 72.078125 56.449219 71.40625 55.894531 C 70.351562 55.023438 69.507812 54.0625 68.902344 53.027344 C 68.597656 52.800781 68.28125 52.554688 67.953125 52.28125 C 65.722656 50.4375 64.492188 48.261719 64.300781 45.808594 C 64.085938 43.003906 65.285156 40.035156 67.773438 37.234375 C 68.4375 36.488281 69.234375 35.945312 70.148438 35.617188 C 70.769531 35.398438 71.410156 35.289062 72.058594 35.289062 C 75.226562 35.289062 77.8125 37.964844 79.058594 39.253906 C 79.136719 39.332031 79.214844 39.414062 79.300781 39.5 C 79.777344 38.734375 80.347656 37.976562 81.011719 37.234375 C 81.664062 36.496094 82.484375 35.941406 83.386719 35.617188 C 84.007812 35.398438 84.648438 35.289062 85.296875 35.289062 C 88.460938 35.289062 91.050781 37.964844 92.292969 39.253906 C 92.570312 39.539062 92.882812 39.835938 93.214844 40.148438 C 93.964844 40.859375 94.808594 41.65625 95.460938 42.574219 C 95.558594 42.675781 95.65625 42.773438 95.746094 42.867188 C 96.019531 43.152344 96.332031 43.445312 96.664062 43.757812 C 98.539062 45.53125 101.675781 48.5 99.140625 52.503906 C 98.976562 52.765625 98.789062 53.171875 98.609375 53.5625 C 98.5 53.800781 98.394531 54.03125 98.285156 54.246094 C 97.671875 55.480469 96.863281 56.882812 95.535156 57.902344 C 95.425781 57.988281 95.3125 58.066406 95.199219 58.144531 C 95.558594 58.558594 95.910156 58.996094 96.246094 59.453125 C 99.574219 62.078125 102.109375 66.117188 103.789062 71.464844 C 107.964844 84.761719 106.996094 101.75 95.425781 109.730469 C 89.441406 113.859375 80.136719 115.351562 73.984375 115.371094 Z M 73.824219 115.371094 " fill-opacity="1" fill-rule="nonzero"/><path fill="#5d261c" d="M 70.289062 51.800781 C 69.871094 51.5 69.472656 51.1875 69.105469 50.882812 C 64.578125 47.148438 65.609375 42.394531 69.125 38.4375 C 69.570312 37.933594 70.121094 37.550781 70.753906 37.324219 C 73.492188 36.355469 76.019531 38.710938 77.757812 40.511719 C 78.378906 41.15625 79.140625 41.816406 79.816406 42.519531 C 80.328125 41.117188 81.210938 39.734375 82.363281 38.4375 C 82.808594 37.933594 83.359375 37.550781 83.992188 37.324219 C 86.730469 36.355469 89.253906 38.710938 90.996094 40.511719 C 91.964844 41.519531 93.261719 42.554688 94.066406 43.738281 C 94.199219 43.871094 94.324219 44 94.445312 44.128906 C 96.402344 46.148438 99.664062 48.289062 97.613281 51.53125 C 97.265625 52.082031 96.964844 52.839844 96.667969 53.4375 C 96.109375 54.554688 95.441406 55.691406 94.433594 56.464844 C 93.59375 57.109375 92.703125 57.367188 91.804688 57.367188 C 93 58.332031 94.035156 59.472656 94.933594 60.726562 C 98.519531 63.460938 100.734375 67.769531 102.0625 72.007812 C 105.773438 83.832031 105.640625 100.484375 94.402344 108.238281 C 89.042969 111.933594 80.375 113.539062 73.976562 113.5625 C 65.457031 113.59375 57.195312 111.046875 52.753906 104.773438 C 49.015625 101.832031 46.476562 97.519531 46.015625 91.550781 C 45.554688 85.554688 45.59375 78.636719 47.179688 72.792969 C 47.621094 71.15625 48.253906 69.367188 49.175781 67.9375 C 50.179688 66.394531 51.820312 65.074219 53.78125 65.734375 C 55.355469 66.257812 55.878906 67.660156 56.007812 69.183594 C 56.402344 69.15625 56.808594 69.207031 57.234375 69.347656 C 59.96875 70.261719 59.527344 73.804688 59.390625 76.042969 C 59.226562 78.664062 59.015625 81.269531 59.027344 83.894531 C 59.035156 85.695312 59.152344 88.660156 59.933594 90.734375 C 63.050781 92.539062 67.4375 93.539062 70.296875 93.839844 C 73.054688 94.128906 76.046875 94.070312 78.742188 93.371094 C 80.113281 93.011719 81.523438 92.566406 82.867188 91.984375 C 79.007812 91.101562 76.085938 88.976562 74.242188 86.101562 C 69.839844 82.984375 67.828125 77.523438 68.691406 71.550781 C 69.441406 66.375 72.085938 60.316406 76.464844 56.941406 C 75.023438 56.394531 73.652344 55.402344 72.558594 54.5 C 71.523438 53.644531 70.78125 52.738281 70.289062 51.800781 Z M 83.898438 52.433594 C 83.738281 52.777344 83.585938 53.128906 83.429688 53.4375 C 83.265625 53.765625 83.09375 54.097656 82.902344 54.417969 C 83.910156 54.351562 84.925781 54.414062 85.921875 54.601562 L 85.792969 54.5 C 84.996094 53.839844 84.371094 53.148438 83.898438 52.433594 Z M 87.890625 72.464844 L 87.875 72.457031 C 86.667969 71.941406 85.355469 71.925781 84.25 72.6875 C 84.113281 72.785156 83.957031 72.914062 83.8125 73.058594 C 85.277344 73.320312 86.90625 73.421875 88.394531 73.429688 C 88.238281 73.105469 88.070312 72.78125 87.890625 72.464844 Z M 87.890625 72.464844 " fill-opacity="1" fill-rule="nonzero"/><path fill="#ed9896" d="M 55.054688 90.234375 C 58.925781 95.160156 70.960938 98.25 79.4375 96.050781 C 87.316406 94.003906 91.128906 90.375 92.675781 86.125 C 90.015625 86.378906 85.15625 86.632812 80.589844 85.78125 C 73.839844 84.523438 70.4375 78.8125 71.433594 71.949219 C 72.425781 65.085938 76.296875 59.53125 80.429688 57.800781 C 84.566406 56.074219 92.203125 57.226562 95.96875 69.222656 C 99.738281 81.222656 98.796875 95.839844 89.378906 102.339844 C 79.960938 108.835938 50.347656 111.769531 48.777344 91.335938 C 47.515625 74.914062 51.527344 67.898438 52.90625 68.359375 C 54.359375 68.847656 50.636719 84.609375 55.054688 90.234375 Z M 84.433594 40.277344 C 85.3125 39.289062 86.808594 40.167969 89.007812 42.4375 C 91.203125 44.710938 92.519531 45.332031 91.824219 46.433594 C 91.128906 47.53125 90.398438 49.804688 89.300781 50.648438 C 88.203125 51.488281 86.390625 50.628906 84.101562 48.742188 C 80.910156 46.105469 81.914062 43.117188 84.433594 40.277344 Z M 71.195312 40.277344 C 72.074219 39.289062 73.574219 40.167969 75.769531 42.4375 C 77.964844 44.710938 79.28125 45.332031 78.585938 46.433594 C 77.890625 47.53125 77.160156 49.804688 76.0625 50.648438 C 74.964844 51.488281 73.152344 50.628906 70.867188 48.742188 C 67.671875 46.105469 68.675781 43.117188 71.195312 40.277344 Z M 92.332031 76.019531 C 91.121094 71.8125 88.800781 67.695312 85.507812 66.289062 C 79.488281 63.722656 74.574219 70.167969 77.972656 73.46875 C 81.128906 76.53125 88.929688 76.390625 92.332031 76.019531 Z M 92.332031 76.019531 " fill-opacity="1" fill-rule="nonzero"/><path fill="#f0c847" d="M 16.351562 32.871094 C 14.65625 32.445312 14.589844 30.257812 16.257812 29.75 C 19.4375 28.785156 21.796875 26.726562 23.523438 24.195312 C 25.855469 20.773438 27.066406 16.496094 27.625 12.742188 C 27.730469 10.820312 30.898438 10.6875 31.175781 12.613281 C 31.75 16.539062 32.972656 20.792969 35.292969 24.195312 C 37.003906 26.703125 39.332031 28.742188 42.464844 29.722656 C 44.160156 30.144531 44.226562 32.335938 42.558594 32.839844 C 39.378906 33.808594 37.019531 35.867188 35.292969 38.398438 C 32.960938 41.816406 31.75 46.097656 31.191406 49.851562 C 31.085938 51.773438 27.917969 51.902344 27.640625 49.976562 C 27.066406 46.050781 25.84375 41.796875 23.523438 38.398438 C 21.8125 35.890625 19.484375 33.847656 16.351562 32.871094 Z M 14.746094 60.09375 C 13.933594 59.890625 13.902344 58.839844 14.703125 58.59375 C 16.230469 58.132812 17.363281 57.144531 18.191406 55.929688 C 19.3125 54.285156 19.894531 52.230469 20.160156 50.429688 C 20.210938 49.507812 21.730469 49.445312 21.867188 50.367188 C 22.140625 52.253906 22.726562 54.292969 23.84375 55.929688 C 24.664062 57.132812 25.78125 58.113281 27.285156 58.582031 C 28.097656 58.785156 28.128906 59.835938 27.328125 60.078125 C 25.800781 60.542969 24.671875 61.53125 23.84375 62.746094 C 22.722656 64.386719 22.140625 66.441406 21.871094 68.246094 C 21.820312 69.167969 20.300781 69.230469 20.167969 68.304688 C 19.894531 66.421875 19.304688 64.378906 18.191406 62.746094 C 17.371094 61.542969 16.253906 60.5625 14.746094 60.09375 Z M 0.859375 42.070312 C 0.046875 41.863281 0.015625 40.816406 0.816406 40.570312 C 2.34375 40.105469 3.472656 39.117188 4.304688 37.902344 C 5.421875 36.261719 6.003906 34.207031 6.273438 32.40625 C 6.324219 31.484375 7.84375 31.421875 7.976562 32.34375 C 8.253906 34.230469 8.839844 36.269531 9.953125 37.902344 C 10.777344 39.109375 11.894531 40.085938 13.398438 40.558594 C 14.210938 40.761719 14.242188 41.8125 13.441406 42.054688 C 11.914062 42.519531 10.785156 43.507812 9.953125 44.722656 C 8.835938 46.363281 8.253906 48.417969 7.984375 50.21875 C 7.933594 51.144531 6.414062 51.207031 6.277344 50.28125 C 6.007812 48.394531 5.417969 46.355469 4.304688 44.722656 C 3.484375 43.515625 2.363281 42.539062 0.859375 42.070312 Z M 0.859375 42.070312 " fill-opacity="1" fill-rule="nonzero"/><g clip-path="url(#e5feb9098b)"><path fill="#f0c847" d="M 133.648438 117.789062 C 135.34375 118.214844 135.410156 120.402344 133.742188 120.910156 C 130.558594 121.875 128.203125 123.933594 126.476562 126.464844 C 124.144531 129.886719 122.929688 134.164062 122.371094 137.917969 C 122.269531 139.839844 119.101562 139.96875 118.824219 138.046875 C 118.25 134.117188 117.027344 129.867188 114.707031 126.464844 C 112.996094 123.957031 110.667969 121.914062 107.535156 120.9375 C 105.839844 120.511719 105.773438 118.324219 107.441406 117.820312 C 110.621094 116.851562 112.980469 114.792969 114.707031 112.261719 C 117.039062 108.839844 118.25 104.5625 118.808594 100.808594 C 118.914062 98.886719 122.082031 98.757812 122.359375 100.679688 C 122.929688 104.609375 124.15625 108.859375 126.476562 112.261719 C 128.1875 114.769531 130.515625 116.8125 133.648438 117.789062 Z M 135.25 90.566406 C 136.066406 90.769531 136.097656 91.820312 135.296875 92.0625 C 133.769531 92.527344 132.636719 93.515625 131.808594 94.730469 C 130.6875 96.371094 130.105469 98.425781 129.839844 100.226562 C 129.789062 101.152344 128.265625 101.214844 128.132812 100.292969 C 127.859375 98.40625 127.269531 96.363281 126.15625 94.730469 C 125.335938 93.527344 124.21875 92.546875 122.714844 92.078125 C 121.902344 91.875 121.871094 90.824219 122.671875 90.582031 C 124.199219 90.113281 125.328125 89.128906 126.15625 87.914062 C 127.277344 86.269531 127.859375 84.214844 128.128906 82.414062 C 128.175781 81.492188 129.699219 81.429688 129.832031 82.355469 C 130.105469 84.238281 130.695312 86.28125 131.808594 87.914062 C 132.628906 89.117188 133.746094 90.097656 135.25 90.566406 Z M 149.140625 108.589844 C 149.953125 108.792969 149.984375 109.84375 149.183594 110.089844 C 147.65625 110.550781 146.523438 111.539062 145.695312 112.753906 C 144.578125 114.398438 143.996094 116.453125 143.726562 118.253906 C 143.675781 119.175781 142.15625 119.238281 142.023438 118.316406 C 141.746094 116.429688 141.15625 114.390625 140.042969 112.753906 C 139.222656 111.550781 138.105469 110.570312 136.601562 110.101562 C 135.789062 109.898438 135.757812 108.847656 136.558594 108.605469 C 138.082031 108.140625 139.214844 107.152344 140.042969 105.9375 C 141.164062 104.292969 141.746094 102.242188 142.015625 100.4375 C 142.066406 99.515625 143.585938 99.453125 143.722656 100.378906 C 143.992188 102.261719 144.582031 104.304688 145.695312 105.9375 C 146.515625 107.140625 147.636719 108.121094 149.140625 108.589844 Z M 149.140625 108.589844 " fill-opacity="1" fill-rule="nonzero"/></g></svg>