<svg xmlns="http://www.w3.org/2000/svg" xmlns:xlink="http://www.w3.org/1999/xlink" width="200" zoomAndPan="magnify" viewBox="0 0 150 157.92" height="200" preserveAspectRatio="xMidYMid meet" version="1.0"><defs><clipPath id="3846f63040"><path d="M 0.0390625 11 L 44 11 L 44 69 L 0.0390625 69 Z M 0.0390625 11 " clip-rule="nonzero"/></clipPath><clipPath id="be7bb08b7b"><path d="M 106 81 L 149.960938 81 L 149.960938 139.898438 L 106 139.898438 Z M 106 81 " clip-rule="nonzero"/></clipPath></defs><path fill="#2db2a8" d="M 123.695312 41.398438 C 137.917969 70.472656 134.363281 108.125 111.355469 124.648438 C 96.996094 134.960938 53.007812 134.960938 38.648438 124.648438 C 15.640625 108.125 12.082031 70.472656 26.304688 41.398438 C 41.5625 10.214844 108.441406 10.214844 123.695312 41.398438 Z M 123.695312 41.398438 " fill-opacity="1" fill-rule="nonzero"/><path fill="#ffffff" d="M 73.429688 104.53125 C 72.742188 104.53125 72.050781 104.496094 71.375 104.425781 C 67.65625 104.035156 64.0625 102.96875 61.257812 101.429688 C 59.90625 100.6875 58.121094 99.472656 57.007812 97.796875 C 53.589844 95.597656 52.132812 92.832031 52.898438 89.964844 C 53.550781 87.523438 55.695312 85.898438 58.777344 85.503906 C 59.335938 85.433594 59.898438 85.371094 60.378906 85.316406 C 66.328125 84.664062 69.195312 84.003906 73.6875 80.027344 C 74.742188 79.09375 77.957031 76.242188 78.078125 73.835938 C 78.152344 72.34375 77.175781 70.585938 76.4375 69.394531 C 75.609375 68.054688 74.726562 66.957031 73.582031 65.839844 C 73.460938 65.722656 73.339844 65.605469 73.21875 65.492188 C 72.246094 64.5625 71.148438 63.507812 70.546875 61.890625 C 69.929688 60.238281 69.996094 58.441406 70.757812 56.394531 C 71.628906 54.042969 73.902344 49.464844 76.902344 47.214844 C 78.082031 46.328125 79.449219 45.863281 80.855469 45.863281 C 80.984375 45.863281 81.109375 45.863281 81.238281 45.871094 C 83.53125 46.011719 85.601562 47.324219 87.402344 49.785156 C 90.601562 51.589844 92.480469 55.757812 93.507812 58.042969 C 96.433594 64.566406 97.703125 71.894531 97.175781 79.230469 C 96.621094 87.089844 93.449219 93.984375 88.25 98.644531 C 84.066406 102.386719 78.664062 104.53125 73.429688 104.53125 Z M 73.429688 104.53125 " fill-opacity="1" fill-rule="nonzero"/><path fill="#5d261c" d="M 58.320312 96.484375 C 56.214844 95.207031 53.929688 93.109375 54.644531 90.433594 C 55.1875 88.40625 57.097656 87.542969 59.003906 87.296875 C 59.527344 87.230469 60.050781 87.171875 60.574219 87.117188 C 66.726562 86.441406 70.054688 85.660156 74.882812 81.382812 C 76.898438 79.597656 79.738281 76.816406 79.882812 73.925781 C 79.976562 72.011719 78.953125 70.019531 77.976562 68.441406 C 77.0625 66.96875 76.078125 65.75 74.84375 64.546875 C 73.8125 63.539062 72.761719 62.65625 72.238281 61.261719 C 71.707031 59.828125 71.933594 58.417969 72.453125 57.023438 C 73.449219 54.335938 75.636719 50.425781 77.988281 48.664062 C 78.902344 47.976562 79.980469 47.609375 81.128906 47.675781 C 83.257812 47.804688 84.902344 49.328125 86.183594 51.183594 C 88.949219 52.503906 90.710938 56.234375 91.859375 58.78125 C 94.707031 65.136719 95.871094 72.164062 95.375 79.101562 C 94.882812 86.003906 92.265625 92.617188 87.042969 97.296875 C 82.851562 101.046875 77.21875 103.222656 71.5625 102.628906 C 68.375 102.292969 64.953125 101.394531 62.128906 99.84375 C 60.746094 99.085938 59.148438 97.941406 58.320312 96.484375 Z M 58.320312 96.484375 " fill-opacity="1" fill-rule="nonzero"/><path fill="#ed9896" d="M 86.089844 56.882812 C 87.953125 61.035156 89.964844 67.601562 89.375 75.871094 C 88.328125 90.515625 77.554688 97.785156 68.613281 96.84375 C 59.671875 95.902344 54.023438 90.722656 59.355469 90.042969 C 64.691406 89.363281 69.867188 89.519531 76.71875 83.453125 C 83.570312 77.390625 84.09375 73.046875 80.324219 66.980469 C 76.5625 60.914062 73.6875 61.648438 75.046875 57.988281 C 76.402344 54.328125 78.601562 51.660156 79.648438 50.875 C 82.539062 48.707031 85.332031 55.191406 86.089844 56.882812 Z M 86.089844 56.882812 " fill-opacity="1" fill-rule="nonzero"/><g clip-path="url(#3846f63040)"><path fill="#f0c847" d="M 16.378906 32.820312 C 14.6875 32.394531 14.621094 30.210938 16.285156 29.707031 C 19.46875 28.742188 21.824219 26.6875 23.550781 24.160156 C 25.878906 20.746094 27.089844 16.476562 27.648438 12.730469 C 27.753906 10.8125 30.917969 10.679688 31.199219 12.601562 C 31.769531 16.523438 32.996094 20.765625 35.3125 24.160156 C 37.023438 26.664062 39.347656 28.699219 42.480469 29.675781 C 44.175781 30.101562 44.242188 32.285156 42.574219 32.789062 C 39.394531 33.753906 37.039062 35.808594 35.3125 38.335938 C 32.980469 41.75 31.769531 46.019531 31.210938 49.765625 C 31.105469 51.683594 27.941406 51.8125 27.660156 49.894531 C 27.089844 45.972656 25.867188 41.730469 23.550781 38.335938 C 21.839844 35.832031 19.511719 33.796875 16.378906 32.820312 Z M 14.777344 59.988281 C 13.964844 59.785156 13.933594 58.738281 14.734375 58.496094 C 16.257812 58.03125 17.390625 57.046875 18.21875 55.832031 C 19.339844 54.191406 19.917969 52.144531 20.1875 50.34375 C 20.238281 49.421875 21.757812 49.363281 21.894531 50.28125 C 22.167969 52.164062 22.753906 54.203125 23.867188 55.832031 C 24.6875 57.035156 25.804688 58.011719 27.308594 58.480469 C 28.121094 58.683594 28.152344 59.730469 27.355469 59.976562 C 25.828125 60.4375 24.695312 61.425781 23.867188 62.636719 C 22.75 64.277344 22.167969 66.328125 21.898438 68.125 C 21.847656 69.046875 20.328125 69.109375 20.195312 68.1875 C 19.917969 66.304688 19.332031 64.265625 18.21875 62.636719 C 17.398438 61.433594 16.28125 60.457031 14.777344 59.988281 Z M 0.898438 42 C 0.0820312 41.796875 0.0546875 40.746094 0.855469 40.503906 C 2.378906 40.042969 3.507812 39.054688 4.339844 37.84375 C 5.460938 36.203125 6.039062 34.152344 6.308594 32.355469 C 6.359375 31.433594 7.878906 31.371094 8.011719 32.292969 C 8.285156 34.175781 8.875 36.214844 9.984375 37.84375 C 10.808594 39.046875 11.925781 40.023438 13.429688 40.492188 C 14.238281 40.695312 14.273438 41.742188 13.472656 41.984375 C 11.945312 42.449219 10.8125 43.433594 9.984375 44.648438 C 8.867188 46.285156 8.285156 48.335938 8.015625 50.136719 C 7.96875 51.058594 6.449219 51.117188 6.3125 50.195312 C 6.039062 48.316406 5.449219 46.277344 4.339844 44.648438 C 3.515625 43.445312 2.402344 42.46875 0.898438 42 Z M 0.898438 42 " fill-opacity="1" fill-rule="nonzero"/></g><g clip-path="url(#be7bb08b7b)"><path fill="#f0c847" d="M 133.621094 117.574219 C 135.3125 118 135.378906 120.183594 133.714844 120.6875 C 130.535156 121.652344 128.175781 123.707031 126.449219 126.234375 C 124.121094 129.648438 122.910156 133.917969 122.351562 137.664062 C 122.25 139.582031 119.082031 139.714844 118.804688 137.792969 C 118.230469 133.871094 117.003906 129.628906 114.6875 126.234375 C 112.976562 123.730469 110.652344 121.695312 107.519531 120.71875 C 105.824219 120.292969 105.757812 118.109375 107.425781 117.605469 C 110.605469 116.640625 112.960938 114.585938 114.6875 112.058594 C 117.019531 108.644531 118.230469 104.375 118.789062 100.628906 C 118.894531 98.710938 122.058594 98.578125 122.339844 100.5 C 122.910156 104.421875 124.132812 108.664062 126.453125 112.058594 C 128.160156 114.5625 130.488281 116.597656 133.621094 117.574219 Z M 135.222656 90.40625 C 136.035156 90.609375 136.066406 91.65625 135.265625 91.902344 C 133.742188 92.363281 132.609375 93.347656 131.78125 94.5625 C 130.660156 96.199219 130.082031 98.25 129.8125 100.050781 C 129.761719 100.96875 128.242188 101.03125 128.109375 100.109375 C 127.835938 98.226562 127.246094 96.191406 126.132812 94.5625 C 125.3125 93.359375 124.195312 92.382812 122.691406 91.914062 C 121.878906 91.710938 121.847656 90.660156 122.644531 90.417969 C 124.175781 89.957031 125.304688 88.96875 126.132812 87.757812 C 127.25 86.117188 127.835938 84.066406 128.101562 82.269531 C 128.152344 81.347656 129.671875 81.285156 129.804688 82.207031 C 130.082031 84.089844 130.667969 86.125 131.78125 87.757812 C 132.601562 88.957031 133.71875 89.9375 135.222656 90.40625 Z M 149.101562 108.394531 C 149.917969 108.597656 149.945312 109.648438 149.148438 109.890625 C 147.621094 110.351562 146.492188 111.339844 145.664062 112.550781 C 144.542969 114.191406 143.960938 116.238281 143.695312 118.039062 C 143.640625 118.960938 142.121094 119.023438 141.988281 118.101562 C 141.714844 116.21875 141.125 114.179688 140.015625 112.550781 C 139.195312 111.351562 138.074219 110.371094 136.574219 109.902344 C 135.761719 109.699219 135.726562 108.652344 136.527344 108.410156 C 138.054688 107.945312 139.1875 106.960938 140.015625 105.746094 C 141.132812 104.109375 141.714844 102.058594 141.984375 100.257812 C 142.03125 99.335938 143.550781 99.273438 143.6875 100.199219 C 143.960938 102.078125 144.550781 104.117188 145.664062 105.746094 C 146.484375 106.949219 147.597656 107.925781 149.101562 108.394531 Z M 149.101562 108.394531 " fill-opacity="1" fill-rule="nonzero"/></g></svg>