<?xml version="1.0" encoding="UTF-8"?>
<!DOCTYPE svg PUBLIC "-//W3C//DTD SVG 1.1//EN" "http://www.w3.org/Graphics/SVG/1.1/DTD/svg11.dtd">
<svg xmlns="http://www.w3.org/2000/svg" version="1.1" width="100px" height="100px" style="shape-rendering:geometricPrecision; text-rendering:geometricPrecision; image-rendering:optimizeQuality; fill-rule:evenodd; clip-rule:evenodd" xmlns:xlink="http://www.w3.org/1999/xlink">
<g><path style="opacity:0.99" fill="#fb7884" d="M 48.5,19.5 C 46.5389,21.9635 44.3722,24.2968 42,26.5C 41.3333,27.1667 41.3333,27.8333 42,28.5C 45.3709,25.2975 48.5375,21.9641 51.5,18.5C 60.548,12.587 69.8813,12.087 79.5,17C 89.4813,26.7688 91.9813,38.2688 87,51.5C 79.557,67.9429 67.7237,80.1096 51.5,88C 49.0871,88.4838 46.7538,88.1505 44.5,87C 32.2866,79.1202 22.4533,68.9535 15,56.5C 9.12285,45.1111 9.12285,33.7778 15,22.5C 25.3602,11.7738 36.5268,10.7738 48.5,19.5 Z"/></g>
<g><path style="opacity:1" fill="#7c3c5b" d="M 51.5,18.5 C 48.5375,21.9641 45.3709,25.2975 42,28.5C 41.3333,27.8333 41.3333,27.1667 42,26.5C 44.3722,24.2968 46.5389,21.9635 48.5,19.5C 49.391,18.8902 50.391,18.5569 51.5,18.5 Z"/></g>
<g><path style="opacity:1" fill="#f9f1f3" d="M 35.5,48.5 C 41.8197,48.3196 44.3197,51.3196 43,57.5C 40.8328,60.2868 37.9994,61.1201 34.5,60C 30.3759,55.6949 30.7092,51.8615 35.5,48.5 Z"/></g>
<g><path style="opacity:1" fill="#faf1f3" d="M 58.5,48.5 C 63.4202,47.7843 66.4202,49.7843 67.5,54.5C 65.6908,60.7523 62.0241,62.0857 56.5,58.5C 54.8097,54.6309 55.4764,51.2975 58.5,48.5 Z"/></g>
<g><path style="opacity:1" fill="#563357" d="M 35.5,52.5 C 37.1667,52.5 38.8333,52.5 40.5,52.5C 41.1693,56.6759 39.6693,58.0093 36,56.5C 35.51,55.2068 35.3433,53.8734 35.5,52.5 Z"/></g>
<g><path style="opacity:1" fill="#563357" d="M 58.5,52.5 C 60.1667,52.5 61.8333,52.5 63.5,52.5C 64.1693,56.6759 62.6693,58.0093 59,56.5C 58.51,55.2068 58.3433,53.8734 58.5,52.5 Z"/></g>
<g><path style="opacity:1" fill="#5d2d51" d="M 44.5,62.5 C 47.8333,62.5 51.1667,62.5 54.5,62.5C 53.5397,68.5477 50.373,69.8811 45,66.5C 44.51,65.2068 44.3433,63.8734 44.5,62.5 Z"/></g>
</svg>
