<?xml version="1.0" encoding="UTF-8"?>
<!DOCTYPE svg PUBLIC "-//W3C//DTD SVG 1.1//EN" "http://www.w3.org/Graphics/SVG/1.1/DTD/svg11.dtd">
<svg xmlns="http://www.w3.org/2000/svg" version="1.1" width="100px" height="100px" style="shape-rendering:geometricPrecision; text-rendering:geometricPrecision; image-rendering:optimizeQuality; fill-rule:evenodd; clip-rule:evenodd" xmlns:xlink="http://www.w3.org/1999/xlink">
<g><path style="opacity:0.941" fill="#f9756b" d="M 31.5,8.5 C 31.5,17.1667 31.5,25.8333 31.5,34.5C 24.1269,32.1368 20.7936,27.1368 21.5,19.5C 19.9233,11.4089 23.2567,7.74227 31.5,8.5 Z"/></g>
<g><path style="opacity:1" fill="#6c93d1" d="M 40.5,8.5 C 46.5,8.5 52.5,8.5 58.5,8.5C 58.5,19.1667 58.5,29.8333 58.5,40.5C 58.1667,41.5 57.5,42.1667 56.5,42.5C 54.1775,41.1843 51.8442,39.8509 49.5,38.5C 47.1558,39.8509 44.8225,41.1843 42.5,42.5C 41.5,42.1667 40.8333,41.5 40.5,40.5C 40.5,29.8333 40.5,19.1667 40.5,8.5 Z"/></g>
<g><path style="opacity:0.937" fill="#f9766c" d="M 67.5,8.5 C 75.7433,7.74227 79.0767,11.4089 77.5,19.5C 78.2064,27.1368 74.8731,32.1368 67.5,34.5C 67.5,25.8333 67.5,17.1667 67.5,8.5 Z"/></g>
<g><path style="opacity:1" fill="#c7d7f0" d="M 31.5,8.5 C 34.5,8.5 37.5,8.5 40.5,8.5C 40.5,19.1667 40.5,29.8333 40.5,40.5C 36.9754,39.2411 33.9754,37.2411 31.5,34.5C 31.5,25.8333 31.5,17.1667 31.5,8.5 Z"/></g>
<g><path style="opacity:1" fill="#c8d7ef" d="M 58.5,8.5 C 61.5,8.5 64.5,8.5 67.5,8.5C 67.5,17.1667 67.5,25.8333 67.5,34.5C 65.0495,37.2768 62.0495,39.2768 58.5,40.5C 58.5,29.8333 58.5,19.1667 58.5,8.5 Z"/></g>
<g><path style="opacity:0.964" fill="#fdc834" d="M 56.5,42.5 C 58.2812,45.2235 59.9479,48.0568 61.5,51C 79.7513,53.481 82.0846,60.8143 68.5,73C 69.637,78.082 69.8037,83.2487 69,88.5C 67.8197,89.6841 66.3197,90.3507 64.5,90.5C 59.2202,89.6945 54.2202,88.0279 49.5,85.5C 44.8096,88.0076 39.8096,89.6742 34.5,90.5C 32.6803,90.3507 31.1803,89.6841 30,88.5C 29.1963,83.2487 29.363,78.082 30.5,73C 16.9154,60.8143 19.2487,53.481 37.5,51C 39.5564,48.3859 41.2231,45.5525 42.5,42.5C 44.8225,41.1843 47.1558,39.8509 49.5,38.5C 51.8442,39.8509 54.1775,41.1843 56.5,42.5 Z"/></g>
<g><path style="opacity:1" fill="#f9f3ea" d="M 37.5,60.5 C 44.6275,60.7063 46.2942,63.873 42.5,70C 35.279,70.0129 33.6124,66.8462 37.5,60.5 Z"/></g>
<g><path style="opacity:1" fill="#f9f4ed" d="M 56.5,60.5 C 61.9868,59.9615 64.1534,62.2949 63,67.5C 60.679,70.9166 58.0124,71.2499 55,68.5C 54.1093,65.5024 54.6093,62.8357 56.5,60.5 Z"/></g>
<g><path style="opacity:1" fill="#553255" d="M 38.5,63.5 C 40.3464,63.2222 41.6798,63.8888 42.5,65.5C 41.6798,67.1112 40.3464,67.7778 38.5,67.5C 38.5,66.1667 38.5,64.8333 38.5,63.5 Z"/></g>
<g><path style="opacity:1" fill="#553255" d="M 57.5,63.5 C 58.5,63.5 59.5,63.5 60.5,63.5C 60.5,64.8333 60.5,66.1667 60.5,67.5C 57.0464,67.7332 56.0464,66.3999 57.5,63.5 Z"/></g>
<g><path style="opacity:1" fill="#4c264a" d="M 45.5,71.5 C 48.2469,71.1866 50.9135,71.52 53.5,72.5C 50.2105,76.6747 47.5439,76.3414 45.5,71.5 Z"/></g>
</svg>
