<?xml version="1.0" encoding="UTF-8"?>
<!DOCTYPE svg PUBLIC "-//W3C//DTD SVG 1.1//EN" "http://www.w3.org/Graphics/SVG/1.1/DTD/svg11.dtd">
<svg xmlns="http://www.w3.org/2000/svg" version="1.1" width="100px" height="100px" style="shape-rendering:geometricPrecision; text-rendering:geometricPrecision; image-rendering:optimizeQuality; fill-rule:evenodd; clip-rule:evenodd" xmlns:xlink="http://www.w3.org/1999/xlink">
<g><path style="opacity:0.966" fill="#fa7369" d="M 86.5,46.5 C 74.4258,38.2841 61.9258,30.6174 49,23.5C 36.3638,30.56 24.1971,38.2267 12.5,46.5C 6.3261,47.8271 4.15944,45.4938 6,39.5C 18.27,29.2288 31.1033,19.7288 44.5,11C 46.2182,10.654 47.8849,10.154 49.5,9.5C 56.2179,11.5535 62.2179,14.8868 67.5,19.5C 71.5817,17.6538 75.915,16.9872 80.5,17.5C 80.3345,21.5138 80.5012,25.5138 81,29.5C 85,32.8333 89,36.1667 93,39.5C 94.8406,45.4938 92.6739,47.8271 86.5,46.5 Z"/></g>
<g><path style="opacity:0.995" fill="#c9dbf3" d="M 86.5,46.5 C 86.3229,58.2607 85.1563,69.9274 83,81.5C 82.1166,84.1024 80.6166,86.2691 78.5,88C 59.1667,88.6667 39.8333,88.6667 20.5,88C 19.3333,86.8333 18.1667,85.6667 17,84.5C 14.5161,71.9612 13.0161,59.2946 12.5,46.5C 24.1971,38.2267 36.3638,30.56 49,23.5C 61.9258,30.6174 74.4258,38.2841 86.5,46.5 Z"/></g>
<g><path style="opacity:1" fill="#f9f9fb" d="M 29.5,52.5 C 36.4971,51.6662 39.6637,54.6662 39,61.5C 34.6667,68.1667 30.3333,68.1667 26,61.5C 24.9804,57.5532 26.1471,54.5532 29.5,52.5 Z"/></g>
<g><path style="opacity:1" fill="#f8f8fa" d="M 63.5,52.5 C 70.7988,51.3714 73.9654,54.3714 73,61.5C 68.6667,68.1667 64.3333,68.1667 60,61.5C 59.0431,57.6386 60.2098,54.6386 63.5,52.5 Z"/></g>
<g><path style="opacity:1" fill="#553255" d="M 30.5,56.5 C 34.9028,55.8933 36.2361,57.56 34.5,61.5C 29.7329,62.8987 28.3996,61.232 30.5,56.5 Z"/></g>
<g><path style="opacity:1" fill="#533054" d="M 64.5,56.5 C 68.909,55.899 70.2424,57.5657 68.5,61.5C 64.1565,62.5191 62.8232,60.8525 64.5,56.5 Z"/></g>
<g><path style="opacity:1" fill="#4d294e" d="M 42.5,66.5 C 47.1667,66.5 51.8333,66.5 56.5,66.5C 55.4095,72.0874 52.0761,74.2541 46.5,73C 44.0771,71.4293 42.7438,69.2626 42.5,66.5 Z"/></g>
</svg>
