<?xml version="1.0" encoding="UTF-8"?>
<!DOCTYPE svg PUBLIC "-//W3C//DTD SVG 1.1//EN" "http://www.w3.org/Graphics/SVG/1.1/DTD/svg11.dtd">
<svg xmlns="http://www.w3.org/2000/svg" version="1.1" width="100px" height="100px" style="shape-rendering:geometricPrecision; text-rendering:geometricPrecision; image-rendering:optimizeQuality; fill-rule:evenodd; clip-rule:evenodd" xmlns:xlink="http://www.w3.org/1999/xlink">
<g><path style="opacity:0.97" fill="#fdc833" d="M 44.5,11.5 C 52.1739,11.3336 59.8406,11.5003 67.5,12C 71.1217,11.9689 73.455,13.6356 74.5,17C 72.5187,25.2848 69.1854,32.9515 64.5,40C 74.6593,39.4669 77.4927,43.6335 73,52.5C 64.2515,65.9166 53.4182,77.4166 40.5,87C 34.6156,88.9591 30.6156,87.1258 28.5,81.5C 29.8768,73.5358 32.5435,66.0358 36.5,59C 33.0244,57.7458 29.3577,57.0791 25.5,57C 25,56.5 24.5,56 24,55.5C 23.8589,39.9447 28.6923,26.1114 38.5,14C 40.6115,13.1553 42.6115,12.322 44.5,11.5 Z"/></g>
<g><path style="opacity:1" fill="#542e4a" d="M 39.5,24.5 C 42.1678,24.8337 44.1678,26.1671 45.5,28.5C 43.5,29.8333 41.5,29.8333 39.5,28.5C 40.0253,27.8076 40.6919,27.3076 41.5,27C 40.244,26.5831 39.5774,25.7498 39.5,24.5 Z"/></g>
<g><path style="opacity:1" fill="#552e49" d="M 57.5,24.5 C 60.999,24.259 61.3323,25.0924 58.5,27C 58.9574,27.414 59.2907,27.914 59.5,28.5C 57.5,29.8333 55.5,29.8333 53.5,28.5C 54.8665,27.16 56.1999,25.8267 57.5,24.5 Z"/></g>
<g><path style="opacity:1" fill="#512b4a" d="M 47.5,30.5 C 52.4928,30.997 53.4928,33.1637 50.5,37C 45.3823,36.8242 44.3823,34.6576 47.5,30.5 Z"/></g>
</svg>
