<?xml version="1.0" encoding="UTF-8"?>
<!DOCTYPE svg PUBLIC "-//W3C//DTD SVG 1.1//EN" "http://www.w3.org/Graphics/SVG/1.1/DTD/svg11.dtd">
<svg xmlns="http://www.w3.org/2000/svg" version="1.1" width="100px" height="100px" style="shape-rendering:geometricPrecision; text-rendering:geometricPrecision; image-rendering:optimizeQuality; fill-rule:evenodd; clip-rule:evenodd" xmlns:xlink="http://www.w3.org/1999/xlink">
<g><path style="opacity:0.992" fill="#6e96d4" d="M 83.5,30.5 C 80.1501,30.335 76.8168,30.5017 73.5,31C 72.4293,31.8518 71.4293,32.6851 70.5,33.5C 67.1667,36.1667 64.1667,39.1667 61.5,42.5C 57.7653,44.7246 54.432,47.558 51.5,51C 48.3333,51.8333 47.1667,50.6667 48,47.5C 51.0379,44.6306 53.8712,41.6306 56.5,38.5C 59.4715,35.1924 62.4715,31.859 65.5,28.5C 66.3149,27.5707 67.1482,26.5707 68,25.5C 68.4983,22.1832 68.665,18.8499 68.5,15.5C 69.6865,12.6603 71.6865,10.4936 74.5,9C 89.0461,6.58651 93.8794,12.4198 89,26.5C 87.1879,27.9771 85.3545,29.3104 83.5,30.5 Z"/></g>
<g><path style="opacity:0.974" fill="#fa736a" d="M 68.5,15.5 C 68.665,18.8499 68.4983,22.1832 68,25.5C 67.1482,26.5707 66.3149,27.5707 65.5,28.5C 47.095,18.2875 33.2617,22.6208 24,41.5C 21.5501,65.0465 32.0501,76.2132 55.5,75C 71.6033,69.6474 78.1033,58.4807 75,41.5C 73.7413,38.6441 72.2413,35.9774 70.5,33.5C 71.4293,32.6851 72.4293,31.8518 73.5,31C 76.8168,30.5017 80.1501,30.335 83.5,30.5C 90.4728,47.1012 88.4728,62.4345 77.5,76.5C 73.8788,78.1313 70.8788,80.4646 68.5,83.5C 55.8333,88.8333 43.1667,88.8333 30.5,83.5C 28.1212,80.4646 25.1212,78.1313 21.5,76.5C 12.5462,66.1223 9.37954,54.1223 12,40.5C 19.4911,18.1624 34.9911,8.66243 58.5,12C 61.8944,13.0755 65.2278,14.2422 68.5,15.5 Z"/></g>
<g><path style="opacity:1" fill="#cad9f1" d="M 65.5,28.5 C 62.4715,31.859 59.4715,35.1924 56.5,38.5C 49.6478,33.9333 43.4812,34.9333 38,41.5C 34.7015,47.2537 34.8682,52.9204 38.5,58.5C 35.0933,61.1352 34.7599,64.1352 37.5,67.5C 41.7968,69.3516 44.4635,68.0183 45.5,63.5C 48.1667,63.5 50.8333,63.5 53.5,63.5C 55.0874,68.648 58.0874,69.648 62.5,66.5C 63.7349,64.6837 63.7349,63.017 62.5,61.5C 62.1667,60.5 61.5,59.8333 60.5,59.5C 60.5,59.1667 60.5,58.8333 60.5,58.5C 63.8656,53.301 64.199,47.9677 61.5,42.5C 64.1667,39.1667 67.1667,36.1667 70.5,33.5C 72.2413,35.9774 73.7413,38.6441 75,41.5C 78.1033,58.4807 71.6033,69.6474 55.5,75C 32.0501,76.2132 21.5501,65.0465 24,41.5C 33.2617,22.6208 47.095,18.2875 65.5,28.5 Z"/></g>
<g><path style="opacity:1" fill="#f9746b" d="M 56.5,38.5 C 53.8712,41.6306 51.0379,44.6306 48,47.5C 47.1667,50.6667 48.3333,51.8333 51.5,51C 54.432,47.558 57.7653,44.7246 61.5,42.5C 64.199,47.9677 63.8656,53.301 60.5,58.5C 56.5208,57.9811 54.1874,59.6478 53.5,63.5C 50.8333,63.5 48.1667,63.5 45.5,63.5C 45.6716,62.5084 45.3382,61.8417 44.5,61.5C 44.1667,60.5 43.5,59.8333 42.5,59.5C 41.4324,58.5655 40.099,58.2322 38.5,58.5C 34.8682,52.9204 34.7015,47.2537 38,41.5C 43.4812,34.9333 49.6478,33.9333 56.5,38.5 Z"/></g>
<g><path style="opacity:1" fill="#fbfafb" d="M 38.5,58.5 C 40.099,58.2322 41.4324,58.5655 42.5,59.5C 39.9236,59.7218 39.0902,61.0551 40,63.5C 42.501,65.0558 44.001,64.3892 44.5,61.5C 45.3382,61.8417 45.6716,62.5084 45.5,63.5C 44.4635,68.0183 41.7968,69.3516 37.5,67.5C 34.7599,64.1352 35.0933,61.1352 38.5,58.5 Z"/></g>
<g><path style="opacity:1" fill="#fbf9fa" d="M 60.5,58.5 C 60.5,58.8333 60.5,59.1667 60.5,59.5C 57.9236,59.7218 57.0902,61.0551 58,63.5C 60.501,65.0558 62.001,64.3892 62.5,61.5C 63.7349,63.017 63.7349,64.6837 62.5,66.5C 58.0874,69.648 55.0874,68.648 53.5,63.5C 54.1874,59.6478 56.5208,57.9811 60.5,58.5 Z"/></g>
<g><path style="opacity:1" fill="#583558" d="M 42.5,59.5 C 43.5,59.8333 44.1667,60.5 44.5,61.5C 44.001,64.3892 42.501,65.0558 40,63.5C 39.0902,61.0551 39.9236,59.7218 42.5,59.5 Z"/></g>
<g><path style="opacity:1" fill="#583558" d="M 60.5,59.5 C 61.5,59.8333 62.1667,60.5 62.5,61.5C 62.001,64.3892 60.501,65.0558 58,63.5C 57.0902,61.0551 57.9236,59.7218 60.5,59.5 Z"/></g>
<g><path style="opacity:1" fill="#553459" d="M 48.5,65.5 C 50.7224,65.5587 51.7224,66.7253 51.5,69C 50.1667,73.6667 48.8333,73.6667 47.5,69C 47.6483,67.7441 47.9816,66.5774 48.5,65.5 Z"/></g>
<g><path style="opacity:0.942" fill="#ae5a64" d="M 21.5,76.5 C 25.1212,78.1313 28.1212,80.4646 30.5,83.5C 28.0549,88.3993 24.3882,89.8993 19.5,88C 18.0527,83.8522 18.7193,80.0188 21.5,76.5 Z"/></g>
<g><path style="opacity:0.949" fill="#ac5964" d="M 77.5,76.5 C 80.2807,80.0188 80.9473,83.8522 79.5,88C 74.6636,89.7696 70.997,88.2696 68.5,83.5C 70.8788,80.4646 73.8788,78.1313 77.5,76.5 Z"/></g>
</svg>
