<?xml version="1.0" encoding="UTF-8"?>
<!DOCTYPE svg PUBLIC "-//W3C//DTD SVG 1.1//EN" "http://www.w3.org/Graphics/SVG/1.1/DTD/svg11.dtd">
<svg xmlns="http://www.w3.org/2000/svg" version="1.1" width="100px" height="100px" style="shape-rendering:geometricPrecision; text-rendering:geometricPrecision; image-rendering:optimizeQuality; fill-rule:evenodd; clip-rule:evenodd" xmlns:xlink="http://www.w3.org/1999/xlink">
<g><path style="opacity:0.941" fill="#4a254a" d="M 61.5,23.5 C 60.5,32.8333 59.5,32.8333 58.5,23.5C 56.1496,12.6903 50.6496,10.6903 42,17.5C 41.4954,19.5183 40.9954,21.5183 40.5,23.5C 40.5,25.8333 40.5,28.1667 40.5,30.5C 39.5,30.5 38.5,30.5 37.5,30.5C 37.5,28.1667 37.5,25.8333 37.5,23.5C 37.6359,12.2072 43.3025,7.7072 54.5,10C 60.1311,12.7615 62.4644,17.2615 61.5,23.5 Z M 58.5,23.5 C 52.5,23.5 46.5,23.5 40.5,23.5C 40.9954,21.5183 41.4954,19.5183 42,17.5C 50.6496,10.6903 56.1496,12.6903 58.5,23.5 Z"/></g>
<g><path style="opacity:0.984" fill="#abd351" d="M 37.5,23.5 C 37.5,25.8333 37.5,28.1667 37.5,30.5C 38.5,30.5 39.5,30.5 40.5,30.5C 40.5,28.1667 40.5,25.8333 40.5,23.5C 46.5,23.5 52.5,23.5 58.5,23.5C 59.5,32.8333 60.5,32.8333 61.5,23.5C 65.8461,23.3343 70.1794,23.501 74.5,24C 75.1258,24.7504 75.6258,25.5838 76,26.5C 77.938,44.884 79.938,63.2173 82,81.5C 81.2261,83.9393 79.7261,85.7727 77.5,87C 68.1515,87.2784 58.8182,87.7784 49.5,88.5C 40.1818,87.7784 30.8485,87.2784 21.5,87C 19.2739,85.7727 17.7739,83.9393 17,81.5C 19.062,63.2173 21.062,44.884 23,26.5C 23.3742,25.5838 23.8742,24.7504 24.5,24C 28.8206,23.501 33.1539,23.3343 37.5,23.5 Z"/></g>
<g><path style="opacity:1" fill="#f9fbf4" d="M 34.5,54.5 C 42.8185,54.9869 44.4851,58.4869 39.5,65C 31.0878,64.8117 29.4211,61.3117 34.5,54.5 Z"/></g>
<g><path style="opacity:1" fill="#f9fbf4" d="M 59.5,54.5 C 67.8185,54.9869 69.4851,58.4869 64.5,65C 56.0878,64.8117 54.4211,61.3117 59.5,54.5 Z"/></g>
<g><path style="opacity:1" fill="#583558" d="M 35.5,57.5 C 39.1612,57.3501 40.1612,58.8501 38.5,62C 34.7071,62.4866 33.7071,60.9866 35.5,57.5 Z"/></g>
<g><path style="opacity:1" fill="#583558" d="M 60.5,57.5 C 64.1612,57.3501 65.1612,58.8501 63.5,62C 59.7071,62.4866 58.7071,60.9866 60.5,57.5 Z"/></g>
<g><path style="opacity:1" fill="#4d2a4b" d="M 44.5,66.5 C 47.8984,66.1796 51.2317,66.513 54.5,67.5C 50.5375,73.0068 47.2042,72.6734 44.5,66.5 Z"/></g>
</svg>
