<?xml version="1.0" encoding="UTF-8"?>
<!DOCTYPE svg PUBLIC "-//W3C//DTD SVG 1.1//EN" "http://www.w3.org/Graphics/SVG/1.1/DTD/svg11.dtd">
<svg xmlns="http://www.w3.org/2000/svg" version="1.1" width="100px" height="100px" style="shape-rendering:geometricPrecision; text-rendering:geometricPrecision; image-rendering:optimizeQuality; fill-rule:evenodd; clip-rule:evenodd" xmlns:xlink="http://www.w3.org/1999/xlink">
<g><path style="opacity:0.973" fill="#fec424" d="M 75.5,-0.5 C 77.1667,-0.5 78.8333,-0.5 80.5,-0.5C 83.1902,2.3702 85.5235,5.53687 87.5,9C 92.1374,9.59445 96.1374,11.4278 99.5,14.5C 99.5,15.5 99.5,16.5 99.5,17.5C 97.5919,20.2799 95.4252,22.9466 93,25.5C 93.9956,29.5537 93.6623,33.5537 92,37.5C 90.9887,38.3366 89.8221,38.67 88.5,38.5C 84.7412,37.4555 81.0746,36.1222 77.5,34.5C 73.1009,36.7441 68.4342,37.7441 63.5,37.5C 63.6658,32.8215 63.4992,28.1548 63,23.5C 61.383,21.2368 59.5497,19.2368 57.5,17.5C 57.3433,16.1266 57.51,14.7932 58,13.5C 61.0492,11.0362 64.5492,9.53621 68.5,9C 70.9646,5.89271 73.2979,2.72604 75.5,-0.5 Z"/></g>
<g><path style="opacity:0.989" fill="#fb7884" d="M 48.5,21.5 C 46.5389,23.9635 44.3722,26.2968 42,28.5C 41.3333,29.1667 41.3333,29.8333 42,30.5C 45.3709,27.2975 48.5375,23.9641 51.5,20.5C 53.5,19.5 55.5,18.5 57.5,17.5C 59.5497,19.2368 61.383,21.2368 63,23.5C 63.4992,28.1548 63.6658,32.8215 63.5,37.5C 68.4342,37.7441 73.1009,36.7441 77.5,34.5C 81.0746,36.1222 84.7412,37.4555 88.5,38.5C 89.2133,55.2406 83.2133,69.0739 70.5,80C 49.9452,92.0727 32.7786,88.2394 19,68.5C 9.79974,53.9412 8.79974,38.9412 16,23.5C 22.9928,15.6439 31.4928,13.4773 41.5,17C 44.2387,18.0259 46.572,19.5259 48.5,21.5 Z"/></g>
<g><path style="opacity:1" fill="#7f3d5c" d="M 51.5,20.5 C 48.5375,23.9641 45.3709,27.2975 42,30.5C 41.3333,29.8333 41.3333,29.1667 42,28.5C 44.3722,26.2968 46.5389,23.9635 48.5,21.5C 49.391,20.8902 50.391,20.5569 51.5,20.5 Z"/></g>
<g><path style="opacity:1" fill="#fbf1f2" d="M 33.5,52.5 C 38.4202,51.7843 41.4202,53.7843 42.5,58.5C 40.4875,63.4006 36.9875,64.7339 32,62.5C 29.7292,58.6965 30.2292,55.3632 33.5,52.5 Z"/></g>
<g><path style="opacity:1" fill="#faf0f2" d="M 60.5,52.5 C 68.5847,52.2144 70.9181,55.5477 67.5,62.5C 61.211,65.0113 58.0444,63.0113 58,56.5C 58.6622,55.0161 59.4955,53.6828 60.5,52.5 Z"/></g>
<g><path style="opacity:1" fill="#5b395b" d="M 34.5,55.5 C 37.9103,55.3838 39.2436,57.0504 38.5,60.5C 34.065,61.0776 32.7317,59.4109 34.5,55.5 Z"/></g>
<g><path style="opacity:1" fill="#59375a" d="M 62.5,55.5 C 65.6853,55.7224 66.6853,57.2224 65.5,60C 64.2068,60.49 62.8734,60.6567 61.5,60.5C 61.366,58.7085 61.6993,57.0418 62.5,55.5 Z"/></g>
<g><path style="opacity:1" fill="#4e274c" d="M 45.5,65.5 C 48.5,65.5 51.5,65.5 54.5,65.5C 54.4869,68.6951 52.8202,70.3618 49.5,70.5C 46.6857,70.019 45.3524,68.3523 45.5,65.5 Z"/></g>
</svg>
